<svg xmlns="http://www.w3.org/2000/svg" xmlns:dc="http://purl.org/dc/elements/1.1/" xmlns:ns2="http://creativecommons.org/ns#" xmlns:rdf="http://www.w3.org/1999/02/22-rdf-syntax-ns#" xmlns:xlink="http://www.w3.org/1999/xlink" width="242.0" height="135.0" viewBox="0.0 0.0 241.5 135.16">
<g id="graph0" class="graph" transform="scale(1.0 1.0) rotate(0) translate(4 131.16)">
<title>G</title>
<polygon fill="white" stroke="none" points="-4,4 -4,-131.16 237.5,-131.16 237.5,4 -4,4" />
<g id="clust2" class="cluster">
<title>cluster_legend</title>
</g>

<g id="node1" class="node">
<title>node0</title>
<svg width="147px" height="47px" viewBox="0 0 195.58875 63.194375" version="1.1" preserveAspectRatio="xMinYMin meet" x="4" y="-118.5">
 <metadata>
  <rdf:RDF>
   <ns2:Work>
    <dc:type rdf:resource="http://purl.org/dc/dcmitype/StillImage" />
    <dc:date>2024-04-18T15:00:10.452243</dc:date>
    <dc:format>image/svg+xml</dc:format>
    <dc:creator>
     <ns2:Agent>
      <dc:title>Matplotlib v3.8.2, https://matplotlib.org/</dc:title>
     </ns2:Agent>
    </dc:creator>
   </ns2:Work>
  </rdf:RDF>
 </metadata>
 <defs>
  <style type="text/css">*{stroke-linejoin: round; stroke-linecap: butt}</style>
 </defs>
 <g id="figure_1">
  <g id="patch_1">
   <path d="M 0 63.194375  L 195.58875 63.194375  L 195.58875 0  L 0 0  z " style="fill: #ffffff" />
  </g>
  <g id="axes_1">
   <g id="patch_2">
    <path d="M 11.44875 29.263125  L 195.58875 29.263125  L 195.58875 1.543125  L 11.44875 1.543125  z " style="fill: #ffffff" />
   </g>
   <g id="patch_3">
    <path d="M 27.460924 29.263125  L 35.467011 29.263125  L 35.467011 14.177411  L 27.460924 14.177411  z " clip-path="url(#pd0620a28d7)" style="fill: #fefebb; stroke: #444443; stroke-width: 0.5; stroke-linejoin: miter" />
   </g>
   <g id="patch_4">
    <path d="M 35.467011 29.263125  L 43.473098 29.263125  L 43.473098 29.263125  L 35.467011 29.263125  z " clip-path="url(#pd0620a28d7)" style="fill: #fefebb; stroke: #444443; stroke-width: 0.5; stroke-linejoin: miter" />
   </g>
   <g id="patch_5">
    <path d="M 43.473098 29.263125  L 51.479185 29.263125  L 51.479185 29.263125  L 43.473098 29.263125  z " clip-path="url(#pd0620a28d7)" style="fill: #fefebb; stroke: #444443; stroke-width: 0.5; stroke-linejoin: miter" />
   </g>
   <g id="patch_6">
    <path d="M 51.479185 29.263125  L 59.485272 29.263125  L 59.485272 29.263125  L 51.479185 29.263125  z " clip-path="url(#pd0620a28d7)" style="fill: #fefebb; stroke: #444443; stroke-width: 0.5; stroke-linejoin: miter" />
   </g>
   <g id="patch_7">
    <path d="M 59.485272 29.263125  L 67.491359 29.263125  L 67.491359 29.263125  L 59.485272 29.263125  z " clip-path="url(#pd0620a28d7)" style="fill: #fefebb; stroke: #444443; stroke-width: 0.5; stroke-linejoin: miter" />
   </g>
   <g id="patch_8">
    <path d="M 67.491359 29.263125  L 75.497446 29.263125  L 75.497446 29.263125  L 67.491359 29.263125  z " clip-path="url(#pd0620a28d7)" style="fill: #fefebb; stroke: #444443; stroke-width: 0.5; stroke-linejoin: miter" />
   </g>
   <g id="patch_9">
    <path d="M 75.497446 29.263125  L 83.503533 29.263125  L 83.503533 29.263125  L 75.497446 29.263125  z " clip-path="url(#pd0620a28d7)" style="fill: #fefebb; stroke: #444443; stroke-width: 0.5; stroke-linejoin: miter" />
   </g>
   <g id="patch_10">
    <path d="M 83.503533 29.263125  L 91.50962 29.263125  L 91.50962 29.263125  L 83.503533 29.263125  z " clip-path="url(#pd0620a28d7)" style="fill: #fefebb; stroke: #444443; stroke-width: 0.5; stroke-linejoin: miter" />
   </g>
   <g id="patch_11">
    <path d="M 91.50962 29.263125  L 99.515707 29.263125  L 99.515707 29.263125  L 91.50962 29.263125  z " clip-path="url(#pd0620a28d7)" style="fill: #fefebb; stroke: #444443; stroke-width: 0.5; stroke-linejoin: miter" />
   </g>
   <g id="patch_12">
    <path d="M 99.515707 29.263125  L 107.521793 29.263125  L 107.521793 29.263125  L 99.515707 29.263125  z " clip-path="url(#pd0620a28d7)" style="fill: #fefebb; stroke: #444443; stroke-width: 0.5; stroke-linejoin: miter" />
   </g>
   <g id="patch_13">
    <path d="M 107.521793 29.263125  L 115.52788 29.263125  L 115.52788 29.263125  L 107.521793 29.263125  z " clip-path="url(#pd0620a28d7)" style="fill: #fefebb; stroke: #444443; stroke-width: 0.5; stroke-linejoin: miter" />
   </g>
   <g id="patch_14">
    <path d="M 115.52788 29.263125  L 123.533967 29.263125  L 123.533967 29.263125  L 115.52788 29.263125  z " clip-path="url(#pd0620a28d7)" style="fill: #fefebb; stroke: #444443; stroke-width: 0.5; stroke-linejoin: miter" />
   </g>
   <g id="patch_15">
    <path d="M 123.533967 29.263125  L 131.540054 29.263125  L 131.540054 29.263125  L 123.533967 29.263125  z " clip-path="url(#pd0620a28d7)" style="fill: #fefebb; stroke: #444443; stroke-width: 0.5; stroke-linejoin: miter" />
   </g>
   <g id="patch_16">
    <path d="M 131.540054 29.263125  L 139.546141 29.263125  L 139.546141 29.263125  L 131.540054 29.263125  z " clip-path="url(#pd0620a28d7)" style="fill: #fefebb; stroke: #444443; stroke-width: 0.5; stroke-linejoin: miter" />
   </g>
   <g id="patch_17">
    <path d="M 139.546141 29.263125  L 147.552228 29.263125  L 147.552228 29.263125  L 139.546141 29.263125  z " clip-path="url(#pd0620a28d7)" style="fill: #fefebb; stroke: #444443; stroke-width: 0.5; stroke-linejoin: miter" />
   </g>
   <g id="patch_18">
    <path d="M 147.552228 29.263125  L 155.558315 29.263125  L 155.558315 29.263125  L 147.552228 29.263125  z " clip-path="url(#pd0620a28d7)" style="fill: #fefebb; stroke: #444443; stroke-width: 0.5; stroke-linejoin: miter" />
   </g>
   <g id="patch_19">
    <path d="M 155.558315 29.263125  L 163.564402 29.263125  L 163.564402 29.263125  L 155.558315 29.263125  z " clip-path="url(#pd0620a28d7)" style="fill: #fefebb; stroke: #444443; stroke-width: 0.5; stroke-linejoin: miter" />
   </g>
   <g id="patch_20">
    <path d="M 163.564402 29.263125  L 171.570489 29.263125  L 171.570489 29.263125  L 163.564402 29.263125  z " clip-path="url(#pd0620a28d7)" style="fill: #fefebb; stroke: #444443; stroke-width: 0.5; stroke-linejoin: miter" />
   </g>
   <g id="patch_21">
    <path d="M 171.570489 29.263125  L 179.576576 29.263125  L 179.576576 25.491696  L 171.570489 25.491696  z " clip-path="url(#pd0620a28d7)" style="fill: #fefebb; stroke: #444443; stroke-width: 0.5; stroke-linejoin: miter" />
   </g>
   <g id="patch_22">
    <path d="M 27.460924 14.177411  L 35.467011 14.177411  L 35.467011 2.863125  L 27.460924 2.863125  z " clip-path="url(#pd0620a28d7)" style="fill: #a1dab4; stroke: #444443; stroke-width: 0.5; stroke-linejoin: miter" />
   </g>
   <g id="patch_23">
    <path d="M 35.467011 29.263125  L 43.473098 29.263125  L 43.473098 29.263125  L 35.467011 29.263125  z " clip-path="url(#pd0620a28d7)" style="fill: #a1dab4; stroke: #444443; stroke-width: 0.5; stroke-linejoin: miter" />
   </g>
   <g id="patch_24">
    <path d="M 43.473098 29.263125  L 51.479185 29.263125  L 51.479185 29.263125  L 43.473098 29.263125  z " clip-path="url(#pd0620a28d7)" style="fill: #a1dab4; stroke: #444443; stroke-width: 0.5; stroke-linejoin: miter" />
   </g>
   <g id="patch_25">
    <path d="M 51.479185 29.263125  L 59.485272 29.263125  L 59.485272 29.263125  L 51.479185 29.263125  z " clip-path="url(#pd0620a28d7)" style="fill: #a1dab4; stroke: #444443; stroke-width: 0.5; stroke-linejoin: miter" />
   </g>
   <g id="patch_26">
    <path d="M 59.485272 29.263125  L 67.491359 29.263125  L 67.491359 29.263125  L 59.485272 29.263125  z " clip-path="url(#pd0620a28d7)" style="fill: #a1dab4; stroke: #444443; stroke-width: 0.5; stroke-linejoin: miter" />
   </g>
   <g id="patch_27">
    <path d="M 67.491359 29.263125  L 75.497446 29.263125  L 75.497446 29.263125  L 67.491359 29.263125  z " clip-path="url(#pd0620a28d7)" style="fill: #a1dab4; stroke: #444443; stroke-width: 0.5; stroke-linejoin: miter" />
   </g>
   <g id="patch_28">
    <path d="M 75.497446 29.263125  L 83.503533 29.263125  L 83.503533 29.263125  L 75.497446 29.263125  z " clip-path="url(#pd0620a28d7)" style="fill: #a1dab4; stroke: #444443; stroke-width: 0.5; stroke-linejoin: miter" />
   </g>
   <g id="patch_29">
    <path d="M 83.503533 29.263125  L 91.50962 29.263125  L 91.50962 29.263125  L 83.503533 29.263125  z " clip-path="url(#pd0620a28d7)" style="fill: #a1dab4; stroke: #444443; stroke-width: 0.5; stroke-linejoin: miter" />
   </g>
   <g id="patch_30">
    <path d="M 91.50962 29.263125  L 99.515707 29.263125  L 99.515707 29.263125  L 91.50962 29.263125  z " clip-path="url(#pd0620a28d7)" style="fill: #a1dab4; stroke: #444443; stroke-width: 0.5; stroke-linejoin: miter" />
   </g>
   <g id="patch_31">
    <path d="M 99.515707 29.263125  L 107.521793 29.263125  L 107.521793 29.263125  L 99.515707 29.263125  z " clip-path="url(#pd0620a28d7)" style="fill: #a1dab4; stroke: #444443; stroke-width: 0.5; stroke-linejoin: miter" />
   </g>
   <g id="patch_32">
    <path d="M 107.521793 29.263125  L 115.52788 29.263125  L 115.52788 29.263125  L 107.521793 29.263125  z " clip-path="url(#pd0620a28d7)" style="fill: #a1dab4; stroke: #444443; stroke-width: 0.5; stroke-linejoin: miter" />
   </g>
   <g id="patch_33">
    <path d="M 115.52788 29.263125  L 123.533967 29.263125  L 123.533967 29.263125  L 115.52788 29.263125  z " clip-path="url(#pd0620a28d7)" style="fill: #a1dab4; stroke: #444443; stroke-width: 0.5; stroke-linejoin: miter" />
   </g>
   <g id="patch_34">
    <path d="M 123.533967 29.263125  L 131.540054 29.263125  L 131.540054 29.263125  L 123.533967 29.263125  z " clip-path="url(#pd0620a28d7)" style="fill: #a1dab4; stroke: #444443; stroke-width: 0.5; stroke-linejoin: miter" />
   </g>
   <g id="patch_35">
    <path d="M 131.540054 29.263125  L 139.546141 29.263125  L 139.546141 29.263125  L 131.540054 29.263125  z " clip-path="url(#pd0620a28d7)" style="fill: #a1dab4; stroke: #444443; stroke-width: 0.5; stroke-linejoin: miter" />
   </g>
   <g id="patch_36">
    <path d="M 139.546141 29.263125  L 147.552228 29.263125  L 147.552228 29.263125  L 139.546141 29.263125  z " clip-path="url(#pd0620a28d7)" style="fill: #a1dab4; stroke: #444443; stroke-width: 0.5; stroke-linejoin: miter" />
   </g>
   <g id="patch_37">
    <path d="M 147.552228 29.263125  L 155.558315 29.263125  L 155.558315 29.263125  L 147.552228 29.263125  z " clip-path="url(#pd0620a28d7)" style="fill: #a1dab4; stroke: #444443; stroke-width: 0.5; stroke-linejoin: miter" />
   </g>
   <g id="patch_38">
    <path d="M 155.558315 29.263125  L 163.564402 29.263125  L 163.564402 29.263125  L 155.558315 29.263125  z " clip-path="url(#pd0620a28d7)" style="fill: #a1dab4; stroke: #444443; stroke-width: 0.5; stroke-linejoin: miter" />
   </g>
   <g id="patch_39">
    <path d="M 163.564402 29.263125  L 171.570489 29.263125  L 171.570489 29.263125  L 163.564402 29.263125  z " clip-path="url(#pd0620a28d7)" style="fill: #a1dab4; stroke: #444443; stroke-width: 0.5; stroke-linejoin: miter" />
   </g>
   <g id="patch_40">
    <path d="M 171.570489 25.491696  L 179.576576 25.491696  L 179.576576 2.863125  L 171.570489 2.863125  z " clip-path="url(#pd0620a28d7)" style="fill: #a1dab4; stroke: #444443; stroke-width: 0.5; stroke-linejoin: miter" />
   </g>
   <g id="patch_41">
    <path d="M 103.51875 30.094725  L 100.20423 38.410725  L 106.83327 38.410725  z " style="fill: #444443" />
   </g>
   <g id="matplotlib.axis_1">
    <g id="xtick_1">
     <g id="line2d_1">
      <defs>
       <path id="m3815ecb68c" d="M 0 0  L 0 3.5  " style="stroke: #000000; stroke-width: 0.3" />
      </defs>
      <g>
       <use xlink:href="#m3815ecb68c" x="27.460924" y="29.263125" style="stroke: #000000; stroke-width: 0.3" />
      </g>
     </g>
     <g id="text_1">
      
      <g style="fill: #444443" transform="translate(21.900924 46.489375) scale(0.08 -0.08)">
       <defs>
        <path id="ArialMT-30" d="M 266 2259  Q 266 3072 433 3567  Q 600 4063 929 4331  Q 1259 4600 1759 4600  Q 2128 4600 2406 4451  Q 2684 4303 2865 4023  Q 3047 3744 3150 3342  Q 3253 2941 3253 2259  Q 3253 1453 3087 958  Q 2922 463 2592 192  Q 2263 -78 1759 -78  Q 1097 -78 719 397  Q 266 969 266 2259  z M 844 2259  Q 844 1131 1108 757  Q 1372 384 1759 384  Q 2147 384 2411 759  Q 2675 1134 2675 2259  Q 2675 3391 2411 3762  Q 2147 4134 1753 4134  Q 1366 4134 1134 3806  Q 844 3388 844 2259  z " transform="scale(0.015625)" />
        <path id="ArialMT-2e" d="M 581 0  L 581 641  L 1222 641  L 1222 0  L 581 0  z " transform="scale(0.015625)" />
       </defs>
       <use xlink:href="#ArialMT-30" />
       <use xlink:href="#ArialMT-2e" x="55.615234" />
       <use xlink:href="#ArialMT-30" x="83.398438" />
      </g>
     </g>
    </g>
    <g id="xtick_2">
     <g id="line2d_2">
      <g>
       <use xlink:href="#m3815ecb68c" x="103.51875" y="29.263125" style="stroke: #000000; stroke-width: 0.3" />
      </g>
     </g>
     <g id="text_2">
      
      <g style="fill: #444443" transform="translate(97.95875 46.489375) scale(0.08 -0.08)">
       <defs>
        <path id="ArialMT-35" d="M 266 1200  L 856 1250  Q 922 819 1161 601  Q 1400 384 1738 384  Q 2144 384 2425 690  Q 2706 997 2706 1503  Q 2706 1984 2436 2262  Q 2166 2541 1728 2541  Q 1456 2541 1237 2417  Q 1019 2294 894 2097  L 366 2166  L 809 4519  L 3088 4519  L 3088 3981  L 1259 3981  L 1013 2750  Q 1425 3038 1878 3038  Q 2478 3038 2890 2622  Q 3303 2206 3303 1553  Q 3303 931 2941 478  Q 2500 -78 1738 -78  Q 1113 -78 717 272  Q 322 622 266 1200  z " transform="scale(0.015625)" />
       </defs>
       <use xlink:href="#ArialMT-30" />
       <use xlink:href="#ArialMT-2e" x="55.615234" />
       <use xlink:href="#ArialMT-35" x="83.398438" />
      </g>
     </g>
    </g>
    <g id="xtick_3">
     <g id="line2d_3">
      <g>
       <use xlink:href="#m3815ecb68c" x="179.576576" y="29.263125" style="stroke: #000000; stroke-width: 0.3" />
      </g>
     </g>
     <g id="text_3">
      
      <g style="fill: #444443" transform="translate(174.016576 46.489375) scale(0.08 -0.08)">
       <defs>
        <path id="ArialMT-31" d="M 2384 0  L 1822 0  L 1822 3584  Q 1619 3391 1289 3197  Q 959 3003 697 2906  L 697 3450  Q 1169 3672 1522 3987  Q 1875 4303 2022 4600  L 2384 4600  L 2384 0  z " transform="scale(0.015625)" />
       </defs>
       <use xlink:href="#ArialMT-31" />
       <use xlink:href="#ArialMT-2e" x="55.615234" />
       <use xlink:href="#ArialMT-30" x="83.398438" />
      </g>
     </g>
    </g>
    <g id="text_4">
     
     <g style="fill: #444443" transform="translate(80.181563 60.66875) scale(0.12 -0.12)">
      <defs>
       <path id="ArialMT-48" d="M 513 0  L 513 4581  L 1119 4581  L 1119 2700  L 3500 2700  L 3500 4581  L 4106 4581  L 4106 0  L 3500 0  L 3500 2159  L 1119 2159  L 1119 0  L 513 0  z " transform="scale(0.015625)" />
       <path id="ArialMT-75" d="M 2597 0  L 2597 488  Q 2209 -75 1544 -75  Q 1250 -75 995 37  Q 741 150 617 320  Q 494 491 444 738  Q 409 903 409 1263  L 409 3319  L 972 3319  L 972 1478  Q 972 1038 1006 884  Q 1059 663 1231 536  Q 1403 409 1656 409  Q 1909 409 2131 539  Q 2353 669 2445 892  Q 2538 1116 2538 1541  L 2538 3319  L 3100 3319  L 3100 0  L 2597 0  z " transform="scale(0.015625)" />
       <path id="ArialMT-6d" d="M 422 0  L 422 3319  L 925 3319  L 925 2853  Q 1081 3097 1340 3245  Q 1600 3394 1931 3394  Q 2300 3394 2536 3241  Q 2772 3088 2869 2813  Q 3263 3394 3894 3394  Q 4388 3394 4653 3120  Q 4919 2847 4919 2278  L 4919 0  L 4359 0  L 4359 2091  Q 4359 2428 4304 2576  Q 4250 2725 4106 2815  Q 3963 2906 3769 2906  Q 3419 2906 3187 2673  Q 2956 2441 2956 1928  L 2956 0  L 2394 0  L 2394 2156  Q 2394 2531 2256 2718  Q 2119 2906 1806 2906  Q 1569 2906 1367 2781  Q 1166 2656 1075 2415  Q 984 2175 984 1722  L 984 0  L 422 0  z " transform="scale(0.015625)" />
       <path id="ArialMT-69" d="M 425 3934  L 425 4581  L 988 4581  L 988 3934  L 425 3934  z M 425 0  L 425 3319  L 988 3319  L 988 0  L 425 0  z " transform="scale(0.015625)" />
       <path id="ArialMT-64" d="M 2575 0  L 2575 419  Q 2259 -75 1647 -75  Q 1250 -75 917 144  Q 584 363 401 755  Q 219 1147 219 1656  Q 219 2153 384 2558  Q 550 2963 881 3178  Q 1213 3394 1622 3394  Q 1922 3394 2156 3267  Q 2391 3141 2538 2938  L 2538 4581  L 3097 4581  L 3097 0  L 2575 0  z M 797 1656  Q 797 1019 1065 703  Q 1334 388 1700 388  Q 2069 388 2326 689  Q 2584 991 2584 1609  Q 2584 2291 2321 2609  Q 2059 2928 1675 2928  Q 1300 2928 1048 2622  Q 797 2316 797 1656  z " transform="scale(0.015625)" />
       <path id="ArialMT-74" d="M 1650 503  L 1731 6  Q 1494 -44 1306 -44  Q 1000 -44 831 53  Q 663 150 594 308  Q 525 466 525 972  L 525 2881  L 113 2881  L 113 3319  L 525 3319  L 525 4141  L 1084 4478  L 1084 3319  L 1650 3319  L 1650 2881  L 1084 2881  L 1084 941  Q 1084 700 1114 631  Q 1144 563 1211 522  Q 1278 481 1403 481  Q 1497 481 1650 503  z " transform="scale(0.015625)" />
       <path id="ArialMT-79" d="M 397 -1278  L 334 -750  Q 519 -800 656 -800  Q 844 -800 956 -737  Q 1069 -675 1141 -563  Q 1194 -478 1313 -144  Q 1328 -97 1363 -6  L 103 3319  L 709 3319  L 1400 1397  Q 1534 1031 1641 628  Q 1738 1016 1872 1384  L 2581 3319  L 3144 3319  L 1881 -56  Q 1678 -603 1566 -809  Q 1416 -1088 1222 -1217  Q 1028 -1347 759 -1347  Q 597 -1347 397 -1278  z " transform="scale(0.015625)" />
      </defs>
      <use xlink:href="#ArialMT-48" />
      <use xlink:href="#ArialMT-75" x="72.216797" />
      <use xlink:href="#ArialMT-6d" x="127.832031" />
      <use xlink:href="#ArialMT-69" x="211.132812" />
      <use xlink:href="#ArialMT-64" x="233.349609" />
      <use xlink:href="#ArialMT-69" x="288.964844" />
      <use xlink:href="#ArialMT-74" x="311.181641" />
      <use xlink:href="#ArialMT-79" x="338.964844" />
     </g>
    </g>
   </g>
   <g id="matplotlib.axis_2">
    <g id="ytick_1">
     <g id="line2d_4">
      <defs>
       <path id="m964c936f82" d="M 0 0  L -3.5 0  " style="stroke: #000000; stroke-width: 0.3" />
      </defs>
      <g>
       <use xlink:href="#m964c936f82" x="11.44875" y="29.263125" style="stroke: #000000; stroke-width: 0.3" />
      </g>
     </g>
     <g id="text_5">
      
      <g style="fill: #444443" transform="translate(0 32.12625) scale(0.08 -0.08)">
       <use xlink:href="#ArialMT-30" />
      </g>
     </g>
    </g>
    <g id="ytick_2">
     <g id="line2d_5">
      <g>
       <use xlink:href="#m964c936f82" x="11.44875" y="2.863125" style="stroke: #000000; stroke-width: 0.3" />
      </g>
     </g>
     <g id="text_6">
      
      <g style="fill: #444443" transform="translate(0 5.72625) scale(0.08 -0.08)">
       <defs>
        <path id="ArialMT-37" d="M 303 3981  L 303 4522  L 3269 4522  L 3269 4084  Q 2831 3619 2401 2847  Q 1972 2075 1738 1259  Q 1569 684 1522 0  L 944 0  Q 953 541 1156 1306  Q 1359 2072 1739 2783  Q 2119 3494 2547 3981  L 303 3981  z " transform="scale(0.015625)" />
       </defs>
       <use xlink:href="#ArialMT-37" />
      </g>
     </g>
    </g>
   </g>
   <g id="patch_42">
    <path d="M 11.44875 29.263125  L 11.44875 1.543125  " style="fill: none; stroke: #444443; stroke-width: 0.3; stroke-linejoin: miter; stroke-linecap: square" />
   </g>
   <g id="patch_43">
    <path d="M 11.44875 29.263125  L 195.58875 29.263125  " style="fill: none; stroke: #444443; stroke-width: 0.3; stroke-linejoin: miter; stroke-linecap: square" />
   </g>
  </g>
 </g>
 <defs>
  <clipPath id="pd0620a28d7">
   <rect x="11.44875" y="1.543125" width="184.14" height="27.72" />
  </clipPath>
 </defs>
</svg></g>

<g id="node2" class="node">
<title>leaf1</title>
<polygon fill="none" stroke="#444443" stroke-width="0" points="71.5,-35 41.5,-35 41.5,0 71.5,0 71.5,-35" />
<svg width="22px" height="27px" viewBox="0 0 30.009375 36.32852" version="1.1" preserveAspectRatio="xMinYMin meet" x="45.5" y="-31">
 <metadata>
  <rdf:RDF>
   <ns2:Work>
    <dc:type rdf:resource="http://purl.org/dc/dcmitype/StillImage" />
    <dc:date>2024-04-18T15:00:10.524673</dc:date>
    <dc:format>image/svg+xml</dc:format>
    <dc:creator>
     <ns2:Agent>
      <dc:title>Matplotlib v3.8.2, https://matplotlib.org/</dc:title>
     </ns2:Agent>
    </dc:creator>
   </ns2:Work>
  </rdf:RDF>
 </metadata>
 <defs>
  <style type="text/css">*{stroke-linejoin: round; stroke-linecap: butt}</style>
 </defs>
 <g id="figure_1">
  <g id="patch_1">
   <path d="M 0 36.32852  L 30.009375 36.32852  L 30.009375 0  L 0 0  z " style="fill: #ffffff" />
  </g>
  <g id="axes_1">
   <g id="patch_2">
    <path d="M 23.936688 8.931991  C 23.936688 7.590185 23.634329 6.265467 23.052141 5.056541  C 22.469954 3.847616 21.622764 2.785274 20.573698 1.948672  C 19.524632 1.11207 18.300408 0.522515 16.992244 0.223935  C 15.68408 -0.074645 14.325294 -0.074645 13.01713 0.223935  C 11.708966 0.522515 10.484742 1.11207 9.435676 1.948673  C 8.38661 2.785275 7.539421 3.847617 6.957233 5.056542  C 6.375045 6.265468 6.072687 7.590186 6.072688 8.931992  C 6.072688 10.273798 6.375046 11.598517 6.957234 12.807442  L 15.004687 8.931991  z " style="fill: #fefebb; stroke: #444443; stroke-width: 0.5; stroke-linejoin: miter" />
   </g>
   <g id="patch_3">
    <path d="M 6.957234 12.807442  C 7.835008 14.630157 9.306524 16.101672 11.129239 16.979446  C 12.951955 17.857219 15.019907 18.090221 16.992246 17.640047  C 18.964585 17.189873 20.726649 16.082694 21.988007 14.501001  C 23.249365 12.919307 23.936688 10.955051 23.936687 8.931989  L 15.004687 8.931991  z " style="fill: #a1dab4; stroke: #444443; stroke-width: 0.5; stroke-linejoin: miter" />
   </g>
   <g id="text_1">
    
    <g style="fill: #444443" transform="translate(7.371562 25.020582) scale(0.09 -0.09)">
     <defs>
      <path id="ArialMT-6e" d="M 422 0  L 422 3319  L 928 3319  L 928 2847  Q 1294 3394 1984 3394  Q 2284 3394 2536 3286  Q 2788 3178 2913 3003  Q 3038 2828 3088 2588  Q 3119 2431 3119 2041  L 3119 0  L 2556 0  L 2556 2019  Q 2556 2363 2490 2533  Q 2425 2703 2258 2804  Q 2091 2906 1866 2906  Q 1506 2906 1245 2678  Q 984 2450 984 1813  L 984 0  L 422 0  z " transform="scale(0.015625)" />
      <path id="ArialMT-3d" d="M 3381 2694  L 356 2694  L 356 3219  L 3381 3219  L 3381 2694  z M 3381 1303  L 356 1303  L 356 1828  L 3381 1828  L 3381 1303  z " transform="scale(0.015625)" />
      <path id="ArialMT-37" d="M 303 3981  L 303 4522  L 3269 4522  L 3269 4084  Q 2831 3619 2401 2847  Q 1972 2075 1738 1259  Q 1569 684 1522 0  L 944 0  Q 953 541 1156 1306  Q 1359 2072 1739 2783  Q 2119 3494 2547 3981  L 303 3981  z " transform="scale(0.015625)" />
     </defs>
     <use xlink:href="#ArialMT-6e" />
     <use xlink:href="#ArialMT-3d" x="55.615234" />
     <use xlink:href="#ArialMT-37" x="114.013672" />
    </g>
    
    <g style="fill: #444443" transform="translate(0 34.53977) scale(0.09 -0.09)">
     <defs>
      <path id="ArialMT-43" d="M 3763 1606  L 4369 1453  Q 4178 706 3683 314  Q 3188 -78 2472 -78  Q 1731 -78 1267 223  Q 803 525 561 1097  Q 319 1669 319 2325  Q 319 3041 592 3573  Q 866 4106 1370 4382  Q 1875 4659 2481 4659  Q 3169 4659 3637 4309  Q 4106 3959 4291 3325  L 3694 3184  Q 3534 3684 3231 3912  Q 2928 4141 2469 4141  Q 1941 4141 1586 3887  Q 1231 3634 1087 3207  Q 944 2781 944 2328  Q 944 1744 1114 1308  Q 1284 872 1643 656  Q 2003 441 2422 441  Q 2931 441 3284 734  Q 3638 1028 3763 1606  z " transform="scale(0.015625)" />
      <path id="ArialMT-6c" d="M 409 0  L 409 4581  L 972 4581  L 972 0  L 409 0  z " transform="scale(0.015625)" />
      <path id="ArialMT-61" d="M 2588 409  Q 2275 144 1986 34  Q 1697 -75 1366 -75  Q 819 -75 525 192  Q 231 459 231 875  Q 231 1119 342 1320  Q 453 1522 633 1644  Q 813 1766 1038 1828  Q 1203 1872 1538 1913  Q 2219 1994 2541 2106  Q 2544 2222 2544 2253  Q 2544 2597 2384 2738  Q 2169 2928 1744 2928  Q 1347 2928 1158 2789  Q 969 2650 878 2297  L 328 2372  Q 403 2725 575 2942  Q 747 3159 1072 3276  Q 1397 3394 1825 3394  Q 2250 3394 2515 3294  Q 2781 3194 2906 3042  Q 3031 2891 3081 2659  Q 3109 2516 3109 2141  L 3109 1391  Q 3109 606 3145 398  Q 3181 191 3288 0  L 2700 0  Q 2613 175 2588 409  z M 2541 1666  Q 2234 1541 1622 1453  Q 1275 1403 1131 1340  Q 988 1278 909 1158  Q 831 1038 831 891  Q 831 666 1001 516  Q 1172 366 1500 366  Q 1825 366 2078 508  Q 2331 650 2450 897  Q 2541 1088 2541 1459  L 2541 1666  z " transform="scale(0.015625)" />
      <path id="ArialMT-73" d="M 197 991  L 753 1078  Q 800 744 1014 566  Q 1228 388 1613 388  Q 2000 388 2187 545  Q 2375 703 2375 916  Q 2375 1106 2209 1216  Q 2094 1291 1634 1406  Q 1016 1563 777 1677  Q 538 1791 414 1992  Q 291 2194 291 2438  Q 291 2659 392 2848  Q 494 3038 669 3163  Q 800 3259 1026 3326  Q 1253 3394 1513 3394  Q 1903 3394 2198 3281  Q 2494 3169 2634 2976  Q 2775 2784 2828 2463  L 2278 2388  Q 2241 2644 2061 2787  Q 1881 2931 1553 2931  Q 1166 2931 1000 2803  Q 834 2675 834 2503  Q 834 2394 903 2306  Q 972 2216 1119 2156  Q 1203 2125 1616 2013  Q 2213 1853 2448 1751  Q 2684 1650 2818 1456  Q 2953 1263 2953 975  Q 2953 694 2789 445  Q 2625 197 2315 61  Q 2006 -75 1616 -75  Q 969 -75 630 194  Q 291 463 197 991  z " transform="scale(0.015625)" />
      <path id="ArialMT-20" transform="scale(0.015625)" />
      <path id="ArialMT-30" d="M 266 2259  Q 266 3072 433 3567  Q 600 4063 929 4331  Q 1259 4600 1759 4600  Q 2128 4600 2406 4451  Q 2684 4303 2865 4023  Q 3047 3744 3150 3342  Q 3253 2941 3253 2259  Q 3253 1453 3087 958  Q 2922 463 2592 192  Q 2263 -78 1759 -78  Q 1097 -78 719 397  Q 266 969 266 2259  z M 844 2259  Q 844 1131 1108 757  Q 1372 384 1759 384  Q 2147 384 2411 759  Q 2675 1134 2675 2259  Q 2675 3391 2411 3762  Q 2147 4134 1753 4134  Q 1366 4134 1134 3806  Q 844 3388 844 2259  z " transform="scale(0.015625)" />
     </defs>
     <use xlink:href="#ArialMT-43" />
     <use xlink:href="#ArialMT-6c" x="72.216797" />
     <use xlink:href="#ArialMT-61" x="94.433594" />
     <use xlink:href="#ArialMT-73" x="150.048828" />
     <use xlink:href="#ArialMT-73" x="200.048828" />
     <use xlink:href="#ArialMT-20" x="250.048828" />
     <use xlink:href="#ArialMT-30" x="277.832031" />
    </g>
   </g>
  </g>
 </g>
</svg></g>

<g id="edge1" class="edge">
<title>node0-&gt;leaf1</title>
<path fill="none" stroke="#444443" stroke-width="0.3" d="M70.16,-67.59C67.55,-58.24 64.67,-47.86 62.22,-39.06" />
<polygon fill="#444443" stroke="#444443" stroke-width="0.3" points="63.6,-38.8 61.18,-35.32 60.9,-39.55 63.6,-38.8" />
<text text-anchor="start" x="68.5" y="-46.2" font-family="Arial" font-size="14.00" fill="#444443"> &#160;&#8804;</text>
</g>

<g id="node3" class="node">
<title>leaf2</title>
<polygon fill="none" stroke="#444443" stroke-width="0" points="115.5,-35 85.5,-35 85.5,0 115.5,0 115.5,-35" />
<svg width="22px" height="27px" viewBox="0 0 30.009375 36.328529" version="1.1" preserveAspectRatio="xMinYMin meet" x="89.5" y="-31">
 <metadata>
  <rdf:RDF>
   <ns2:Work>
    <dc:type rdf:resource="http://purl.org/dc/dcmitype/StillImage" />
    <dc:date>2024-04-18T15:00:10.563704</dc:date>
    <dc:format>image/svg+xml</dc:format>
    <dc:creator>
     <ns2:Agent>
      <dc:title>Matplotlib v3.8.2, https://matplotlib.org/</dc:title>
     </ns2:Agent>
    </dc:creator>
   </ns2:Work>
  </rdf:RDF>
 </metadata>
 <defs>
  <style type="text/css">*{stroke-linejoin: round; stroke-linecap: butt}</style>
 </defs>
 <g id="figure_1">
  <g id="patch_1">
   <path d="M 0 36.328529  L 30.009375 36.328529  L 30.009375 0  L 0 0  z " style="fill: #ffffff" />
  </g>
  <g id="axes_1">
   <g id="patch_2">
    <path d="M 23.936688 8.932  C 23.936688 7.590194 23.634329 6.265476 23.052141 5.05655  C 22.469954 3.847625 21.622764 2.785283 20.573698 1.948681  L 15.004687 8.932  z " style="fill: #fefebb; stroke: #444443; stroke-width: 0.5; stroke-linejoin: miter" />
   </g>
   <g id="patch_3">
    <path d="M 20.573698 1.948681  C 19.788327 1.322368 18.902897 0.833008 17.95474 0.501234  C 17.006583 0.16946 16.009215 -0 15.004687 0  C 14.000159 0 13.002791 0.16946 12.054634 0.501234  C 11.106478 0.833009 10.221048 1.322369 9.435676 1.948681  C 8.650305 2.574994 7.976188 3.329332 7.441747 4.17989  C 6.907306 5.030448 6.52016 5.965102 6.296631 6.944444  C 6.073103 7.923786 6.016379 8.933856 6.12885 9.932067  C 6.241322 10.930279 6.521386 11.902402 6.957234 12.80745  C 7.393082 13.712498 7.978502 14.53757 8.68881 15.247878  C 9.399119 15.958186 10.22419 16.543606 11.129239 16.979454  C 12.034287 17.415302 13.00641 17.695366 14.004621 17.807838  C 15.002833 17.920309 16.012903 17.863584 16.992245 17.640056  C 17.971587 17.416527 18.906241 17.029381 19.756799 16.49494  C 20.607356 15.960499 21.361694 15.286382 21.988007 14.50101  C 22.614319 13.715639 23.103679 12.830209 23.435454 11.882052  C 23.767228 10.933895 23.936688 9.936527 23.936687 8.931999  L 15.004687 8.932  z " style="fill: #a1dab4; stroke: #444443; stroke-width: 0.5; stroke-linejoin: miter" />
   </g>
   <g id="text_1">
    
    <g style="fill: #444443" transform="translate(7.371562 25.020591) scale(0.09 -0.09)">
     <defs>
      <path id="ArialMT-6e" d="M 422 0  L 422 3319  L 928 3319  L 928 2847  Q 1294 3394 1984 3394  Q 2284 3394 2536 3286  Q 2788 3178 2913 3003  Q 3038 2828 3088 2588  Q 3119 2431 3119 2041  L 3119 0  L 2556 0  L 2556 2019  Q 2556 2363 2490 2533  Q 2425 2703 2258 2804  Q 2091 2906 1866 2906  Q 1506 2906 1245 2678  Q 984 2450 984 1813  L 984 0  L 422 0  z " transform="scale(0.015625)" />
      <path id="ArialMT-3d" d="M 3381 2694  L 356 2694  L 356 3219  L 3381 3219  L 3381 2694  z M 3381 1303  L 356 1303  L 356 1828  L 3381 1828  L 3381 1303  z " transform="scale(0.015625)" />
      <path id="ArialMT-37" d="M 303 3981  L 303 4522  L 3269 4522  L 3269 4084  Q 2831 3619 2401 2847  Q 1972 2075 1738 1259  Q 1569 684 1522 0  L 944 0  Q 953 541 1156 1306  Q 1359 2072 1739 2783  Q 2119 3494 2547 3981  L 303 3981  z " transform="scale(0.015625)" />
     </defs>
     <use xlink:href="#ArialMT-6e" />
     <use xlink:href="#ArialMT-3d" x="55.615234" />
     <use xlink:href="#ArialMT-37" x="114.013672" />
    </g>
    
    <g style="fill: #444443" transform="translate(0 34.539779) scale(0.09 -0.09)">
     <defs>
      <path id="ArialMT-43" d="M 3763 1606  L 4369 1453  Q 4178 706 3683 314  Q 3188 -78 2472 -78  Q 1731 -78 1267 223  Q 803 525 561 1097  Q 319 1669 319 2325  Q 319 3041 592 3573  Q 866 4106 1370 4382  Q 1875 4659 2481 4659  Q 3169 4659 3637 4309  Q 4106 3959 4291 3325  L 3694 3184  Q 3534 3684 3231 3912  Q 2928 4141 2469 4141  Q 1941 4141 1586 3887  Q 1231 3634 1087 3207  Q 944 2781 944 2328  Q 944 1744 1114 1308  Q 1284 872 1643 656  Q 2003 441 2422 441  Q 2931 441 3284 734  Q 3638 1028 3763 1606  z " transform="scale(0.015625)" />
      <path id="ArialMT-6c" d="M 409 0  L 409 4581  L 972 4581  L 972 0  L 409 0  z " transform="scale(0.015625)" />
      <path id="ArialMT-61" d="M 2588 409  Q 2275 144 1986 34  Q 1697 -75 1366 -75  Q 819 -75 525 192  Q 231 459 231 875  Q 231 1119 342 1320  Q 453 1522 633 1644  Q 813 1766 1038 1828  Q 1203 1872 1538 1913  Q 2219 1994 2541 2106  Q 2544 2222 2544 2253  Q 2544 2597 2384 2738  Q 2169 2928 1744 2928  Q 1347 2928 1158 2789  Q 969 2650 878 2297  L 328 2372  Q 403 2725 575 2942  Q 747 3159 1072 3276  Q 1397 3394 1825 3394  Q 2250 3394 2515 3294  Q 2781 3194 2906 3042  Q 3031 2891 3081 2659  Q 3109 2516 3109 2141  L 3109 1391  Q 3109 606 3145 398  Q 3181 191 3288 0  L 2700 0  Q 2613 175 2588 409  z M 2541 1666  Q 2234 1541 1622 1453  Q 1275 1403 1131 1340  Q 988 1278 909 1158  Q 831 1038 831 891  Q 831 666 1001 516  Q 1172 366 1500 366  Q 1825 366 2078 508  Q 2331 650 2450 897  Q 2541 1088 2541 1459  L 2541 1666  z " transform="scale(0.015625)" />
      <path id="ArialMT-73" d="M 197 991  L 753 1078  Q 800 744 1014 566  Q 1228 388 1613 388  Q 2000 388 2187 545  Q 2375 703 2375 916  Q 2375 1106 2209 1216  Q 2094 1291 1634 1406  Q 1016 1563 777 1677  Q 538 1791 414 1992  Q 291 2194 291 2438  Q 291 2659 392 2848  Q 494 3038 669 3163  Q 800 3259 1026 3326  Q 1253 3394 1513 3394  Q 1903 3394 2198 3281  Q 2494 3169 2634 2976  Q 2775 2784 2828 2463  L 2278 2388  Q 2241 2644 2061 2787  Q 1881 2931 1553 2931  Q 1166 2931 1000 2803  Q 834 2675 834 2503  Q 834 2394 903 2306  Q 972 2216 1119 2156  Q 1203 2125 1616 2013  Q 2213 1853 2448 1751  Q 2684 1650 2818 1456  Q 2953 1263 2953 975  Q 2953 694 2789 445  Q 2625 197 2315 61  Q 2006 -75 1616 -75  Q 969 -75 630 194  Q 291 463 197 991  z " transform="scale(0.015625)" />
      <path id="ArialMT-20" transform="scale(0.015625)" />
      <path id="ArialMT-31" d="M 2384 0  L 1822 0  L 1822 3584  Q 1619 3391 1289 3197  Q 959 3003 697 2906  L 697 3450  Q 1169 3672 1522 3987  Q 1875 4303 2022 4600  L 2384 4600  L 2384 0  z " transform="scale(0.015625)" />
     </defs>
     <use xlink:href="#ArialMT-43" />
     <use xlink:href="#ArialMT-6c" x="72.216797" />
     <use xlink:href="#ArialMT-61" x="94.433594" />
     <use xlink:href="#ArialMT-73" x="150.048828" />
     <use xlink:href="#ArialMT-73" x="200.048828" />
     <use xlink:href="#ArialMT-20" x="250.048828" />
     <use xlink:href="#ArialMT-31" x="277.832031" />
    </g>
   </g>
  </g>
 </g>
</svg></g>

<g id="edge2" class="edge">
<title>node0-&gt;leaf2</title>
<path fill="none" stroke="#444443" stroke-width="0.3" d="M85.54,-67.59C88.39,-58.24 91.56,-47.86 94.24,-39.06" />
<polygon fill="#444443" stroke="#444443" stroke-width="0.3" points="95.55,-39.55 95.38,-35.32 92.87,-38.74 95.55,-39.55" />
<text text-anchor="start" x="92.5" y="-46.2" font-family="Arial" font-size="14.00" fill="#444443"> &#160;&gt;</text>
</g>


<g id="node4" class="node">
<title>legend</title>
<polygon fill="none" stroke="black" stroke-width="0" points="225.16,-119.16 161.84,-119.16 161.84,-70.84 225.16,-70.84 225.16,-119.16" />
<svg width="59px" height="44px" viewBox="0 0 78.617188 58.553125" version="1.1" preserveAspectRatio="xMinYMin meet" x="164" y="-117">
 <metadata>
  <rdf:RDF>
   <ns2:Work>
    <dc:type rdf:resource="http://purl.org/dc/dcmitype/StillImage" />
    <dc:date>2024-04-18T15:00:10.375762</dc:date>
    <dc:format>image/svg+xml</dc:format>
    <dc:creator>
     <ns2:Agent>
      <dc:title>Matplotlib v3.8.2, https://matplotlib.org/</dc:title>
     </ns2:Agent>
    </dc:creator>
   </ns2:Work>
  </rdf:RDF>
 </metadata>
 <defs>
  <style type="text/css">*{stroke-linejoin: round; stroke-linecap: butt}</style>
 </defs>
 <g id="figure_1">
  <g id="patch_1">
   <path d="M 0 58.553125  L 78.617188 58.553125  L 78.617188 0  L 0 0  z " style="fill: #ffffff" />
  </g>
  <g id="axes_1">
   <g id="legend_1">
    <g id="patch_2">
     <path d="M 2 58.553125  L 71.617188 58.553125  Q 73.617188 58.553125 73.617188 56.553125  L 73.617188 7  Q 73.617188 5 71.617188 5  L 2 5  Q 0 5 0 7  L 0 56.553125  Q 0 58.553125 2 58.553125  z " style="fill: #ffffff; opacity: 0.8; stroke: #444443; stroke-width: 0.5; stroke-linejoin: miter" />
    </g>
    <g id="text_1">
     
     <g style="fill: #444443" transform="translate(8 20.157812) scale(0.1 -0.1)">
      <defs>
       <path id="Arial-BoldMT-50" d="M 466 0  L 466 4581  L 1950 4581  Q 2794 4581 3050 4513  Q 3444 4409 3709 4064  Q 3975 3719 3975 3172  Q 3975 2750 3822 2462  Q 3669 2175 3433 2011  Q 3197 1847 2953 1794  Q 2622 1728 1994 1728  L 1391 1728  L 1391 0  L 466 0  z M 1391 3806  L 1391 2506  L 1897 2506  Q 2444 2506 2628 2578  Q 2813 2650 2917 2803  Q 3022 2956 3022 3159  Q 3022 3409 2875 3571  Q 2728 3734 2503 3775  Q 2338 3806 1838 3806  L 1391 3806  z " transform="scale(0.015625)" />
       <path id="Arial-BoldMT-6c" d="M 459 0  L 459 4581  L 1338 4581  L 1338 0  L 459 0  z " transform="scale(0.015625)" />
       <path id="Arial-BoldMT-61" d="M 1116 2306  L 319 2450  Q 453 2931 781 3162  Q 1109 3394 1756 3394  Q 2344 3394 2631 3255  Q 2919 3116 3036 2902  Q 3153 2688 3153 2116  L 3144 1091  Q 3144 653 3186 445  Q 3228 238 3344 0  L 2475 0  Q 2441 88 2391 259  Q 2369 338 2359 363  Q 2134 144 1878 34  Q 1622 -75 1331 -75  Q 819 -75 523 203  Q 228 481 228 906  Q 228 1188 362 1408  Q 497 1628 739 1745  Q 981 1863 1438 1950  Q 2053 2066 2291 2166  L 2291 2253  Q 2291 2506 2166 2614  Q 2041 2722 1694 2722  Q 1459 2722 1328 2630  Q 1197 2538 1116 2306  z M 2291 1594  Q 2122 1538 1756 1459  Q 1391 1381 1278 1306  Q 1106 1184 1106 997  Q 1106 813 1243 678  Q 1381 544 1594 544  Q 1831 544 2047 700  Q 2206 819 2256 991  Q 2291 1103 2291 1419  L 2291 1594  z " transform="scale(0.015625)" />
       <path id="Arial-BoldMT-79" d="M 44 3319  L 978 3319  L 1772 963  L 2547 3319  L 3456 3319  L 2284 125  L 2075 -453  Q 1959 -744 1854 -897  Q 1750 -1050 1614 -1145  Q 1478 -1241 1279 -1294  Q 1081 -1347 831 -1347  Q 578 -1347 334 -1294  L 256 -606  Q 463 -647 628 -647  Q 934 -647 1081 -467  Q 1228 -288 1306 -9  L 44 3319  z " transform="scale(0.015625)" />
       <path id="Arial-BoldMT-5f" d="M -59 -1266  L -59 -697  L 3591 -697  L 3591 -1266  L -59 -1266  z " transform="scale(0.015625)" />
       <path id="Arial-BoldMT-54" d="M 1497 0  L 1497 3806  L 138 3806  L 138 4581  L 3778 4581  L 3778 3806  L 2422 3806  L 2422 0  L 1497 0  z " transform="scale(0.015625)" />
       <path id="Arial-BoldMT-65" d="M 2381 1056  L 3256 909  Q 3088 428 2723 176  Q 2359 -75 1813 -75  Q 947 -75 531 491  Q 203 944 203 1634  Q 203 2459 634 2926  Q 1066 3394 1725 3394  Q 2466 3394 2894 2905  Q 3322 2416 3303 1406  L 1103 1406  Q 1113 1016 1316 798  Q 1519 581 1822 581  Q 2028 581 2168 693  Q 2309 806 2381 1056  z M 2431 1944  Q 2422 2325 2234 2523  Q 2047 2722 1778 2722  Q 1491 2722 1303 2513  Q 1116 2303 1119 1944  L 2431 1944  z " transform="scale(0.015625)" />
       <path id="Arial-BoldMT-6e" d="M 3478 0  L 2600 0  L 2600 1694  Q 2600 2231 2544 2389  Q 2488 2547 2361 2634  Q 2234 2722 2056 2722  Q 1828 2722 1647 2597  Q 1466 2472 1398 2265  Q 1331 2059 1331 1503  L 1331 0  L 453 0  L 453 3319  L 1269 3319  L 1269 2831  Q 1703 3394 2363 3394  Q 2653 3394 2893 3289  Q 3134 3184 3257 3021  Q 3381 2859 3429 2653  Q 3478 2447 3478 2063  L 3478 0  z " transform="scale(0.015625)" />
       <path id="Arial-BoldMT-69" d="M 459 3769  L 459 4581  L 1338 4581  L 1338 3769  L 459 3769  z M 459 0  L 459 3319  L 1338 3319  L 1338 0  L 459 0  z " transform="scale(0.015625)" />
       <path id="Arial-BoldMT-73" d="M 150 947  L 1031 1081  Q 1088 825 1259 692  Q 1431 559 1741 559  Q 2081 559 2253 684  Q 2369 772 2369 919  Q 2369 1019 2306 1084  Q 2241 1147 2013 1200  Q 950 1434 666 1628  Q 272 1897 272 2375  Q 272 2806 612 3100  Q 953 3394 1669 3394  Q 2350 3394 2681 3172  Q 3013 2950 3138 2516  L 2309 2363  Q 2256 2556 2107 2659  Q 1959 2763 1684 2763  Q 1338 2763 1188 2666  Q 1088 2597 1088 2488  Q 1088 2394 1175 2328  Q 1294 2241 1995 2081  Q 2697 1922 2975 1691  Q 3250 1456 3250 1038  Q 3250 581 2869 253  Q 2488 -75 1741 -75  Q 1063 -75 667 200  Q 272 475 150 947  z " transform="scale(0.015625)" />
      </defs>
      <use xlink:href="#Arial-BoldMT-50" />
      <use xlink:href="#Arial-BoldMT-6c" x="66.699219" />
      <use xlink:href="#Arial-BoldMT-61" x="94.482422" />
      <use xlink:href="#Arial-BoldMT-79" x="150.097656" />
      <use xlink:href="#Arial-BoldMT-5f" x="205.712891" />
      <use xlink:href="#Arial-BoldMT-54" x="261.328125" />
      <use xlink:href="#Arial-BoldMT-65" x="315.037109" />
      <use xlink:href="#Arial-BoldMT-6e" x="370.652344" />
      <use xlink:href="#Arial-BoldMT-6e" x="431.736328" />
      <use xlink:href="#Arial-BoldMT-69" x="492.820312" />
      <use xlink:href="#Arial-BoldMT-73" x="520.603516" />
     </g>
    </g>
    <g id="patch_3">
     <path d="M 8.386719 34.420312  L 28.386719 34.420312  L 28.386719 27.420312  L 8.386719 27.420312  z " style="fill: #fefebb; stroke: #444443; stroke-width: 0.4; stroke-linejoin: miter" />
    </g>
    <g id="text_2">
     
     <g style="fill: #444443" transform="translate(31.886719 34.420312) scale(0.1 -0.1)">
      <defs>
       <path id="ArialMT-43" d="M 3763 1606  L 4369 1453  Q 4178 706 3683 314  Q 3188 -78 2472 -78  Q 1731 -78 1267 223  Q 803 525 561 1097  Q 319 1669 319 2325  Q 319 3041 592 3573  Q 866 4106 1370 4382  Q 1875 4659 2481 4659  Q 3169 4659 3637 4309  Q 4106 3959 4291 3325  L 3694 3184  Q 3534 3684 3231 3912  Q 2928 4141 2469 4141  Q 1941 4141 1586 3887  Q 1231 3634 1087 3207  Q 944 2781 944 2328  Q 944 1744 1114 1308  Q 1284 872 1643 656  Q 2003 441 2422 441  Q 2931 441 3284 734  Q 3638 1028 3763 1606  z " transform="scale(0.015625)" />
       <path id="ArialMT-6c" d="M 409 0  L 409 4581  L 972 4581  L 972 0  L 409 0  z " transform="scale(0.015625)" />
       <path id="ArialMT-61" d="M 2588 409  Q 2275 144 1986 34  Q 1697 -75 1366 -75  Q 819 -75 525 192  Q 231 459 231 875  Q 231 1119 342 1320  Q 453 1522 633 1644  Q 813 1766 1038 1828  Q 1203 1872 1538 1913  Q 2219 1994 2541 2106  Q 2544 2222 2544 2253  Q 2544 2597 2384 2738  Q 2169 2928 1744 2928  Q 1347 2928 1158 2789  Q 969 2650 878 2297  L 328 2372  Q 403 2725 575 2942  Q 747 3159 1072 3276  Q 1397 3394 1825 3394  Q 2250 3394 2515 3294  Q 2781 3194 2906 3042  Q 3031 2891 3081 2659  Q 3109 2516 3109 2141  L 3109 1391  Q 3109 606 3145 398  Q 3181 191 3288 0  L 2700 0  Q 2613 175 2588 409  z M 2541 1666  Q 2234 1541 1622 1453  Q 1275 1403 1131 1340  Q 988 1278 909 1158  Q 831 1038 831 891  Q 831 666 1001 516  Q 1172 366 1500 366  Q 1825 366 2078 508  Q 2331 650 2450 897  Q 2541 1088 2541 1459  L 2541 1666  z " transform="scale(0.015625)" />
       <path id="ArialMT-73" d="M 197 991  L 753 1078  Q 800 744 1014 566  Q 1228 388 1613 388  Q 2000 388 2187 545  Q 2375 703 2375 916  Q 2375 1106 2209 1216  Q 2094 1291 1634 1406  Q 1016 1563 777 1677  Q 538 1791 414 1992  Q 291 2194 291 2438  Q 291 2659 392 2848  Q 494 3038 669 3163  Q 800 3259 1026 3326  Q 1253 3394 1513 3394  Q 1903 3394 2198 3281  Q 2494 3169 2634 2976  Q 2775 2784 2828 2463  L 2278 2388  Q 2241 2644 2061 2787  Q 1881 2931 1553 2931  Q 1166 2931 1000 2803  Q 834 2675 834 2503  Q 834 2394 903 2306  Q 972 2216 1119 2156  Q 1203 2125 1616 2013  Q 2213 1853 2448 1751  Q 2684 1650 2818 1456  Q 2953 1263 2953 975  Q 2953 694 2789 445  Q 2625 197 2315 61  Q 2006 -75 1616 -75  Q 969 -75 630 194  Q 291 463 197 991  z " transform="scale(0.015625)" />
       <path id="ArialMT-20" transform="scale(0.015625)" />
       <path id="ArialMT-30" d="M 266 2259  Q 266 3072 433 3567  Q 600 4063 929 4331  Q 1259 4600 1759 4600  Q 2128 4600 2406 4451  Q 2684 4303 2865 4023  Q 3047 3744 3150 3342  Q 3253 2941 3253 2259  Q 3253 1453 3087 958  Q 2922 463 2592 192  Q 2263 -78 1759 -78  Q 1097 -78 719 397  Q 266 969 266 2259  z M 844 2259  Q 844 1131 1108 757  Q 1372 384 1759 384  Q 2147 384 2411 759  Q 2675 1134 2675 2259  Q 2675 3391 2411 3762  Q 2147 4134 1753 4134  Q 1366 4134 1134 3806  Q 844 3388 844 2259  z " transform="scale(0.015625)" />
      </defs>
      <use xlink:href="#ArialMT-43" />
      <use xlink:href="#ArialMT-6c" x="72.216797" />
      <use xlink:href="#ArialMT-61" x="94.433594" />
      <use xlink:href="#ArialMT-73" x="150.048828" />
      <use xlink:href="#ArialMT-73" x="200.048828" />
      <use xlink:href="#ArialMT-20" x="250.048828" />
      <use xlink:href="#ArialMT-30" x="277.832031" />
     </g>
    </g>
    <g id="patch_4">
     <path d="M 8.386719 48.565625  L 28.386719 48.565625  L 28.386719 41.565625  L 8.386719 41.565625  z " style="fill: #a1dab4; stroke: #444443; stroke-width: 0.4; stroke-linejoin: miter" />
    </g>
    <g id="text_3">
     
     <g style="fill: #444443" transform="translate(31.886719 48.565625) scale(0.1 -0.1)">
      <defs>
       <path id="ArialMT-31" d="M 2384 0  L 1822 0  L 1822 3584  Q 1619 3391 1289 3197  Q 959 3003 697 2906  L 697 3450  Q 1169 3672 1522 3987  Q 1875 4303 2022 4600  L 2384 4600  L 2384 0  z " transform="scale(0.015625)" />
      </defs>
      <use xlink:href="#ArialMT-43" />
      <use xlink:href="#ArialMT-6c" x="72.216797" />
      <use xlink:href="#ArialMT-61" x="94.433594" />
      <use xlink:href="#ArialMT-73" x="150.048828" />
      <use xlink:href="#ArialMT-73" x="200.048828" />
      <use xlink:href="#ArialMT-20" x="250.048828" />
      <use xlink:href="#ArialMT-31" x="277.832031" />
     </g>
    </g>
   </g>
  </g>
 </g>
</svg></g>
</g>
</svg>