<svg xmlns="http://www.w3.org/2000/svg" xmlns:dc="http://purl.org/dc/elements/1.1/" xmlns:ns2="http://creativecommons.org/ns#" xmlns:rdf="http://www.w3.org/1999/02/22-rdf-syntax-ns#" xmlns:xlink="http://www.w3.org/1999/xlink" width="241.0" height="132.0" viewBox="0.0 0.0 240.5 131.66">
<g id="graph0" class="graph" transform="scale(1.0 1.0) rotate(0) translate(4 127.66)">
<title>G</title>
<polygon fill="white" stroke="none" points="-4,4 -4,-127.66 236.5,-127.66 236.5,4 -4,4" />
<g id="clust2" class="cluster">
<title>cluster_legend</title>
</g>

<g id="node1" class="node">
<title>node0</title>
<svg width="147px" height="47px" viewBox="0 0 195.58875 63.194375" version="1.1" preserveAspectRatio="xMinYMin meet" x="4" y="-115.5">
 <metadata>
  <rdf:RDF>
   <ns2:Work>
    <dc:type rdf:resource="http://purl.org/dc/dcmitype/StillImage" />
    <dc:date>2024-04-02T23:20:11.778897</dc:date>
    <dc:format>image/svg+xml</dc:format>
    <dc:creator>
     <ns2:Agent>
      <dc:title>Matplotlib v3.8.2, https://matplotlib.org/</dc:title>
     </ns2:Agent>
    </dc:creator>
   </ns2:Work>
  </rdf:RDF>
 </metadata>
 <defs>
  <style type="text/css">*{stroke-linejoin: round; stroke-linecap: butt}</style>
 </defs>
 <g id="figure_1">
  <g id="patch_1">
   <path d="M 0 63.194375  L 195.58875 63.194375  L 195.58875 0  L 0 0  z " style="fill: #ffffff" />
  </g>
  <g id="axes_1">
   <g id="patch_2">
    <path d="M 11.44875 29.263125  L 195.58875 29.263125  L 195.58875 1.543125  L 11.44875 1.543125  z " style="fill: #ffffff" />
   </g>
   <g id="patch_3">
    <path d="M 27.460924 29.263125  L 35.467011 29.263125  L 35.467011 2.863125  L 27.460924 2.863125  z " clip-path="url(#p9efa97ac72)" style="fill: #fefebb; stroke: #444443; stroke-width: 0.5; stroke-linejoin: miter" />
   </g>
   <g id="patch_4">
    <path d="M 35.467011 29.263125  L 43.473098 29.263125  L 43.473098 29.263125  L 35.467011 29.263125  z " clip-path="url(#p9efa97ac72)" style="fill: #fefebb; stroke: #444443; stroke-width: 0.5; stroke-linejoin: miter" />
   </g>
   <g id="patch_5">
    <path d="M 43.473098 29.263125  L 51.479185 29.263125  L 51.479185 2.863125  L 43.473098 2.863125  z " clip-path="url(#p9efa97ac72)" style="fill: #fefebb; stroke: #444443; stroke-width: 0.5; stroke-linejoin: miter" />
   </g>
   <g id="patch_6">
    <path d="M 51.479185 29.263125  L 59.485272 29.263125  L 59.485272 29.263125  L 51.479185 29.263125  z " clip-path="url(#p9efa97ac72)" style="fill: #fefebb; stroke: #444443; stroke-width: 0.5; stroke-linejoin: miter" />
   </g>
   <g id="patch_7">
    <path d="M 59.485272 29.263125  L 67.491359 29.263125  L 67.491359 29.263125  L 59.485272 29.263125  z " clip-path="url(#p9efa97ac72)" style="fill: #fefebb; stroke: #444443; stroke-width: 0.5; stroke-linejoin: miter" />
   </g>
   <g id="patch_8">
    <path d="M 67.491359 29.263125  L 75.497446 29.263125  L 75.497446 29.263125  L 67.491359 29.263125  z " clip-path="url(#p9efa97ac72)" style="fill: #fefebb; stroke: #444443; stroke-width: 0.5; stroke-linejoin: miter" />
   </g>
   <g id="patch_9">
    <path d="M 75.497446 29.263125  L 83.503533 29.263125  L 83.503533 29.263125  L 75.497446 29.263125  z " clip-path="url(#p9efa97ac72)" style="fill: #fefebb; stroke: #444443; stroke-width: 0.5; stroke-linejoin: miter" />
   </g>
   <g id="patch_10">
    <path d="M 83.503533 29.263125  L 91.50962 29.263125  L 91.50962 29.263125  L 83.503533 29.263125  z " clip-path="url(#p9efa97ac72)" style="fill: #fefebb; stroke: #444443; stroke-width: 0.5; stroke-linejoin: miter" />
   </g>
   <g id="patch_11">
    <path d="M 91.50962 29.263125  L 99.515707 29.263125  L 99.515707 2.863125  L 91.50962 2.863125  z " clip-path="url(#p9efa97ac72)" style="fill: #fefebb; stroke: #444443; stroke-width: 0.5; stroke-linejoin: miter" />
   </g>
   <g id="patch_12">
    <path d="M 99.515707 29.263125  L 107.521793 29.263125  L 107.521793 29.263125  L 99.515707 29.263125  z " clip-path="url(#p9efa97ac72)" style="fill: #fefebb; stroke: #444443; stroke-width: 0.5; stroke-linejoin: miter" />
   </g>
   <g id="patch_13">
    <path d="M 107.521793 29.263125  L 115.52788 29.263125  L 115.52788 29.263125  L 107.521793 29.263125  z " clip-path="url(#p9efa97ac72)" style="fill: #fefebb; stroke: #444443; stroke-width: 0.5; stroke-linejoin: miter" />
   </g>
   <g id="patch_14">
    <path d="M 115.52788 29.263125  L 123.533967 29.263125  L 123.533967 29.263125  L 115.52788 29.263125  z " clip-path="url(#p9efa97ac72)" style="fill: #fefebb; stroke: #444443; stroke-width: 0.5; stroke-linejoin: miter" />
   </g>
   <g id="patch_15">
    <path d="M 123.533967 29.263125  L 131.540054 29.263125  L 131.540054 29.263125  L 123.533967 29.263125  z " clip-path="url(#p9efa97ac72)" style="fill: #fefebb; stroke: #444443; stroke-width: 0.5; stroke-linejoin: miter" />
   </g>
   <g id="patch_16">
    <path d="M 131.540054 29.263125  L 139.546141 29.263125  L 139.546141 29.263125  L 131.540054 29.263125  z " clip-path="url(#p9efa97ac72)" style="fill: #fefebb; stroke: #444443; stroke-width: 0.5; stroke-linejoin: miter" />
   </g>
   <g id="patch_17">
    <path d="M 139.546141 29.263125  L 147.552228 29.263125  L 147.552228 29.263125  L 139.546141 29.263125  z " clip-path="url(#p9efa97ac72)" style="fill: #fefebb; stroke: #444443; stroke-width: 0.5; stroke-linejoin: miter" />
   </g>
   <g id="patch_18">
    <path d="M 147.552228 29.263125  L 155.558315 29.263125  L 155.558315 29.263125  L 147.552228 29.263125  z " clip-path="url(#p9efa97ac72)" style="fill: #fefebb; stroke: #444443; stroke-width: 0.5; stroke-linejoin: miter" />
   </g>
   <g id="patch_19">
    <path d="M 155.558315 29.263125  L 163.564402 29.263125  L 163.564402 29.263125  L 155.558315 29.263125  z " clip-path="url(#p9efa97ac72)" style="fill: #fefebb; stroke: #444443; stroke-width: 0.5; stroke-linejoin: miter" />
   </g>
   <g id="patch_20">
    <path d="M 163.564402 29.263125  L 171.570489 29.263125  L 171.570489 29.263125  L 163.564402 29.263125  z " clip-path="url(#p9efa97ac72)" style="fill: #fefebb; stroke: #444443; stroke-width: 0.5; stroke-linejoin: miter" />
   </g>
   <g id="patch_21">
    <path d="M 171.570489 29.263125  L 179.576576 29.263125  L 179.576576 29.263125  L 171.570489 29.263125  z " clip-path="url(#p9efa97ac72)" style="fill: #fefebb; stroke: #444443; stroke-width: 0.5; stroke-linejoin: miter" />
   </g>
   <g id="patch_22">
    <path d="M 27.460924 2.863125  L 35.467011 2.863125  L 35.467011 2.863125  L 27.460924 2.863125  z " clip-path="url(#p9efa97ac72)" style="fill: #a1dab4; stroke: #444443; stroke-width: 0.5; stroke-linejoin: miter" />
   </g>
   <g id="patch_23">
    <path d="M 35.467011 29.263125  L 43.473098 29.263125  L 43.473098 29.263125  L 35.467011 29.263125  z " clip-path="url(#p9efa97ac72)" style="fill: #a1dab4; stroke: #444443; stroke-width: 0.5; stroke-linejoin: miter" />
   </g>
   <g id="patch_24">
    <path d="M 43.473098 2.863125  L 51.479185 2.863125  L 51.479185 2.863125  L 43.473098 2.863125  z " clip-path="url(#p9efa97ac72)" style="fill: #a1dab4; stroke: #444443; stroke-width: 0.5; stroke-linejoin: miter" />
   </g>
   <g id="patch_25">
    <path d="M 51.479185 29.263125  L 59.485272 29.263125  L 59.485272 29.263125  L 51.479185 29.263125  z " clip-path="url(#p9efa97ac72)" style="fill: #a1dab4; stroke: #444443; stroke-width: 0.5; stroke-linejoin: miter" />
   </g>
   <g id="patch_26">
    <path d="M 59.485272 29.263125  L 67.491359 29.263125  L 67.491359 29.263125  L 59.485272 29.263125  z " clip-path="url(#p9efa97ac72)" style="fill: #a1dab4; stroke: #444443; stroke-width: 0.5; stroke-linejoin: miter" />
   </g>
   <g id="patch_27">
    <path d="M 67.491359 29.263125  L 75.497446 29.263125  L 75.497446 29.263125  L 67.491359 29.263125  z " clip-path="url(#p9efa97ac72)" style="fill: #a1dab4; stroke: #444443; stroke-width: 0.5; stroke-linejoin: miter" />
   </g>
   <g id="patch_28">
    <path d="M 75.497446 29.263125  L 83.503533 29.263125  L 83.503533 2.863125  L 75.497446 2.863125  z " clip-path="url(#p9efa97ac72)" style="fill: #a1dab4; stroke: #444443; stroke-width: 0.5; stroke-linejoin: miter" />
   </g>
   <g id="patch_29">
    <path d="M 83.503533 29.263125  L 91.50962 29.263125  L 91.50962 29.263125  L 83.503533 29.263125  z " clip-path="url(#p9efa97ac72)" style="fill: #a1dab4; stroke: #444443; stroke-width: 0.5; stroke-linejoin: miter" />
   </g>
   <g id="patch_30">
    <path d="M 91.50962 2.863125  L 99.515707 2.863125  L 99.515707 2.863125  L 91.50962 2.863125  z " clip-path="url(#p9efa97ac72)" style="fill: #a1dab4; stroke: #444443; stroke-width: 0.5; stroke-linejoin: miter" />
   </g>
   <g id="patch_31">
    <path d="M 99.515707 29.263125  L 107.521793 29.263125  L 107.521793 29.263125  L 99.515707 29.263125  z " clip-path="url(#p9efa97ac72)" style="fill: #a1dab4; stroke: #444443; stroke-width: 0.5; stroke-linejoin: miter" />
   </g>
   <g id="patch_32">
    <path d="M 107.521793 29.263125  L 115.52788 29.263125  L 115.52788 29.263125  L 107.521793 29.263125  z " clip-path="url(#p9efa97ac72)" style="fill: #a1dab4; stroke: #444443; stroke-width: 0.5; stroke-linejoin: miter" />
   </g>
   <g id="patch_33">
    <path d="M 115.52788 29.263125  L 123.533967 29.263125  L 123.533967 29.263125  L 115.52788 29.263125  z " clip-path="url(#p9efa97ac72)" style="fill: #a1dab4; stroke: #444443; stroke-width: 0.5; stroke-linejoin: miter" />
   </g>
   <g id="patch_34">
    <path d="M 123.533967 29.263125  L 131.540054 29.263125  L 131.540054 29.263125  L 123.533967 29.263125  z " clip-path="url(#p9efa97ac72)" style="fill: #a1dab4; stroke: #444443; stroke-width: 0.5; stroke-linejoin: miter" />
   </g>
   <g id="patch_35">
    <path d="M 131.540054 29.263125  L 139.546141 29.263125  L 139.546141 29.263125  L 131.540054 29.263125  z " clip-path="url(#p9efa97ac72)" style="fill: #a1dab4; stroke: #444443; stroke-width: 0.5; stroke-linejoin: miter" />
   </g>
   <g id="patch_36">
    <path d="M 139.546141 29.263125  L 147.552228 29.263125  L 147.552228 29.263125  L 139.546141 29.263125  z " clip-path="url(#p9efa97ac72)" style="fill: #a1dab4; stroke: #444443; stroke-width: 0.5; stroke-linejoin: miter" />
   </g>
   <g id="patch_37">
    <path d="M 147.552228 29.263125  L 155.558315 29.263125  L 155.558315 29.263125  L 147.552228 29.263125  z " clip-path="url(#p9efa97ac72)" style="fill: #a1dab4; stroke: #444443; stroke-width: 0.5; stroke-linejoin: miter" />
   </g>
   <g id="patch_38">
    <path d="M 155.558315 29.263125  L 163.564402 29.263125  L 163.564402 2.863125  L 155.558315 2.863125  z " clip-path="url(#p9efa97ac72)" style="fill: #a1dab4; stroke: #444443; stroke-width: 0.5; stroke-linejoin: miter" />
   </g>
   <g id="patch_39">
    <path d="M 163.564402 29.263125  L 171.570489 29.263125  L 171.570489 29.263125  L 163.564402 29.263125  z " clip-path="url(#p9efa97ac72)" style="fill: #a1dab4; stroke: #444443; stroke-width: 0.5; stroke-linejoin: miter" />
   </g>
   <g id="patch_40">
    <path d="M 171.570489 29.263125  L 179.576576 29.263125  L 179.576576 2.863125  L 171.570489 2.863125  z " clip-path="url(#p9efa97ac72)" style="fill: #a1dab4; stroke: #444443; stroke-width: 0.5; stroke-linejoin: miter" />
   </g>
   <g id="patch_41">
    <path d="M 128.871359 30.094725  L 125.556839 38.410725  L 132.185879 38.410725  z " style="fill: #444443" />
   </g>
   <g id="matplotlib.axis_1">
    <g id="xtick_1">
     <g id="line2d_1">
      <defs>
       <path id="m8fa5edc852" d="M 0 0  L 0 3.5  " style="stroke: #000000; stroke-width: 0.3" />
      </defs>
      <g>
       <use xlink:href="#m8fa5edc852" x="27.460924" y="29.263125" style="stroke: #000000; stroke-width: 0.3" />
      </g>
     </g>
     <g id="text_1">
      
      <g style="fill: #444443" transform="translate(21.900924 46.489375) scale(0.08 -0.08)">
       <defs>
        <path id="ArialMT-30" d="M 266 2259  Q 266 3072 433 3567  Q 600 4063 929 4331  Q 1259 4600 1759 4600  Q 2128 4600 2406 4451  Q 2684 4303 2865 4023  Q 3047 3744 3150 3342  Q 3253 2941 3253 2259  Q 3253 1453 3087 958  Q 2922 463 2592 192  Q 2263 -78 1759 -78  Q 1097 -78 719 397  Q 266 969 266 2259  z M 844 2259  Q 844 1131 1108 757  Q 1372 384 1759 384  Q 2147 384 2411 759  Q 2675 1134 2675 2259  Q 2675 3391 2411 3762  Q 2147 4134 1753 4134  Q 1366 4134 1134 3806  Q 844 3388 844 2259  z " transform="scale(0.015625)" />
        <path id="ArialMT-2e" d="M 581 0  L 581 641  L 1222 641  L 1222 0  L 581 0  z " transform="scale(0.015625)" />
        <path id="ArialMT-39" d="M 350 1059  L 891 1109  Q 959 728 1153 556  Q 1347 384 1650 384  Q 1909 384 2104 503  Q 2300 622 2425 820  Q 2550 1019 2634 1356  Q 2719 1694 2719 2044  Q 2719 2081 2716 2156  Q 2547 1888 2255 1720  Q 1963 1553 1622 1553  Q 1053 1553 659 1965  Q 266 2378 266 3053  Q 266 3750 677 4175  Q 1088 4600 1706 4600  Q 2153 4600 2523 4359  Q 2894 4119 3086 3673  Q 3278 3228 3278 2384  Q 3278 1506 3087 986  Q 2897 466 2520 194  Q 2144 -78 1638 -78  Q 1100 -78 759 220  Q 419 519 350 1059  z M 2653 3081  Q 2653 3566 2395 3850  Q 2138 4134 1775 4134  Q 1400 4134 1122 3828  Q 844 3522 844 3034  Q 844 2597 1108 2323  Q 1372 2050 1759 2050  Q 2150 2050 2401 2323  Q 2653 2597 2653 3081  z " transform="scale(0.015625)" />
       </defs>
       <use xlink:href="#ArialMT-30" />
       <use xlink:href="#ArialMT-2e" x="55.615234" />
       <use xlink:href="#ArialMT-39" x="83.398438" />
      </g>
     </g>
    </g>
    <g id="xtick_2">
     <g id="line2d_2">
      <g>
       <use xlink:href="#m8fa5edc852" x="128.871359" y="29.263125" style="stroke: #000000; stroke-width: 0.3" />
      </g>
     </g>
     <g id="text_2">
      
      <g style="fill: #444443" transform="translate(123.311359 46.489375) scale(0.08 -0.08)">
       <defs>
        <path id="ArialMT-31" d="M 2384 0  L 1822 0  L 1822 3584  Q 1619 3391 1289 3197  Q 959 3003 697 2906  L 697 3450  Q 1169 3672 1522 3987  Q 1875 4303 2022 4600  L 2384 4600  L 2384 0  z " transform="scale(0.015625)" />
        <path id="ArialMT-35" d="M 266 1200  L 856 1250  Q 922 819 1161 601  Q 1400 384 1738 384  Q 2144 384 2425 690  Q 2706 997 2706 1503  Q 2706 1984 2436 2262  Q 2166 2541 1728 2541  Q 1456 2541 1237 2417  Q 1019 2294 894 2097  L 366 2166  L 809 4519  L 3088 4519  L 3088 3981  L 1259 3981  L 1013 2750  Q 1425 3038 1878 3038  Q 2478 3038 2890 2622  Q 3303 2206 3303 1553  Q 3303 931 2941 478  Q 2500 -78 1738 -78  Q 1113 -78 717 272  Q 322 622 266 1200  z " transform="scale(0.015625)" />
       </defs>
       <use xlink:href="#ArialMT-31" />
       <use xlink:href="#ArialMT-2e" x="55.615234" />
       <use xlink:href="#ArialMT-35" x="83.398438" />
      </g>
     </g>
    </g>
    <g id="xtick_3">
     <g id="line2d_3">
      <g>
       <use xlink:href="#m8fa5edc852" x="179.576576" y="29.263125" style="stroke: #000000; stroke-width: 0.3" />
      </g>
     </g>
     <g id="text_3">
      
      <g style="fill: #444443" transform="translate(174.016576 46.489375) scale(0.08 -0.08)">
       <defs>
        <path id="ArialMT-38" d="M 1131 2484  Q 781 2613 612 2850  Q 444 3088 444 3419  Q 444 3919 803 4259  Q 1163 4600 1759 4600  Q 2359 4600 2725 4251  Q 3091 3903 3091 3403  Q 3091 3084 2923 2848  Q 2756 2613 2416 2484  Q 2838 2347 3058 2040  Q 3278 1734 3278 1309  Q 3278 722 2862 322  Q 2447 -78 1769 -78  Q 1091 -78 675 323  Q 259 725 259 1325  Q 259 1772 486 2073  Q 713 2375 1131 2484  z M 1019 3438  Q 1019 3113 1228 2906  Q 1438 2700 1772 2700  Q 2097 2700 2305 2904  Q 2513 3109 2513 3406  Q 2513 3716 2298 3927  Q 2084 4138 1766 4138  Q 1444 4138 1231 3931  Q 1019 3725 1019 3438  z M 838 1322  Q 838 1081 952 856  Q 1066 631 1291 507  Q 1516 384 1775 384  Q 2178 384 2440 643  Q 2703 903 2703 1303  Q 2703 1709 2433 1975  Q 2163 2241 1756 2241  Q 1359 2241 1098 1978  Q 838 1716 838 1322  z " transform="scale(0.015625)" />
       </defs>
       <use xlink:href="#ArialMT-31" />
       <use xlink:href="#ArialMT-2e" x="55.615234" />
       <use xlink:href="#ArialMT-38" x="83.398438" />
      </g>
     </g>
    </g>
    <g id="text_4">
     
     <g style="fill: #444443" transform="translate(68.157188 60.66875) scale(0.12 -0.12)">
      <defs>
       <path id="ArialMT-50" d="M 494 0  L 494 4581  L 2222 4581  Q 2678 4581 2919 4538  Q 3256 4481 3484 4323  Q 3713 4166 3852 3881  Q 3991 3597 3991 3256  Q 3991 2672 3619 2267  Q 3247 1863 2275 1863  L 1100 1863  L 1100 0  L 494 0  z M 1100 2403  L 2284 2403  Q 2872 2403 3119 2622  Q 3366 2841 3366 3238  Q 3366 3525 3220 3729  Q 3075 3934 2838 4000  Q 2684 4041 2272 4041  L 1100 4041  L 1100 2403  z " transform="scale(0.015625)" />
       <path id="ArialMT-65" d="M 2694 1069  L 3275 997  Q 3138 488 2766 206  Q 2394 -75 1816 -75  Q 1088 -75 661 373  Q 234 822 234 1631  Q 234 2469 665 2931  Q 1097 3394 1784 3394  Q 2450 3394 2872 2941  Q 3294 2488 3294 1666  Q 3294 1616 3291 1516  L 816 1516  Q 847 969 1125 678  Q 1403 388 1819 388  Q 2128 388 2347 550  Q 2566 713 2694 1069  z M 847 1978  L 2700 1978  Q 2663 2397 2488 2606  Q 2219 2931 1791 2931  Q 1403 2931 1139 2672  Q 875 2413 847 1978  z " transform="scale(0.015625)" />
       <path id="ArialMT-74" d="M 1650 503  L 1731 6  Q 1494 -44 1306 -44  Q 1000 -44 831 53  Q 663 150 594 308  Q 525 466 525 972  L 525 2881  L 113 2881  L 113 3319  L 525 3319  L 525 4141  L 1084 4478  L 1084 3319  L 1650 3319  L 1650 2881  L 1084 2881  L 1084 941  Q 1084 700 1114 631  Q 1144 563 1211 522  Q 1278 481 1403 481  Q 1497 481 1650 503  z " transform="scale(0.015625)" />
       <path id="ArialMT-61" d="M 2588 409  Q 2275 144 1986 34  Q 1697 -75 1366 -75  Q 819 -75 525 192  Q 231 459 231 875  Q 231 1119 342 1320  Q 453 1522 633 1644  Q 813 1766 1038 1828  Q 1203 1872 1538 1913  Q 2219 1994 2541 2106  Q 2544 2222 2544 2253  Q 2544 2597 2384 2738  Q 2169 2928 1744 2928  Q 1347 2928 1158 2789  Q 969 2650 878 2297  L 328 2372  Q 403 2725 575 2942  Q 747 3159 1072 3276  Q 1397 3394 1825 3394  Q 2250 3394 2515 3294  Q 2781 3194 2906 3042  Q 3031 2891 3081 2659  Q 3109 2516 3109 2141  L 3109 1391  Q 3109 606 3145 398  Q 3181 191 3288 0  L 2700 0  Q 2613 175 2588 409  z M 2541 1666  Q 2234 1541 1622 1453  Q 1275 1403 1131 1340  Q 988 1278 909 1158  Q 831 1038 831 891  Q 831 666 1001 516  Q 1172 366 1500 366  Q 1825 366 2078 508  Q 2331 650 2450 897  Q 2541 1088 2541 1459  L 2541 1666  z " transform="scale(0.015625)" />
       <path id="ArialMT-6c" d="M 409 0  L 409 4581  L 972 4581  L 972 0  L 409 0  z " transform="scale(0.015625)" />
       <path id="ArialMT-5f" d="M -97 -1272  L -97 -866  L 3631 -866  L 3631 -1272  L -97 -1272  z " transform="scale(0.015625)" />
       <path id="ArialMT-4c" d="M 469 0  L 469 4581  L 1075 4581  L 1075 541  L 3331 541  L 3331 0  L 469 0  z " transform="scale(0.015625)" />
       <path id="ArialMT-6e" d="M 422 0  L 422 3319  L 928 3319  L 928 2847  Q 1294 3394 1984 3394  Q 2284 3394 2536 3286  Q 2788 3178 2913 3003  Q 3038 2828 3088 2588  Q 3119 2431 3119 2041  L 3119 0  L 2556 0  L 2556 2019  Q 2556 2363 2490 2533  Q 2425 2703 2258 2804  Q 2091 2906 1866 2906  Q 1506 2906 1245 2678  Q 984 2450 984 1813  L 984 0  L 422 0  z " transform="scale(0.015625)" />
       <path id="ArialMT-67" d="M 319 -275  L 866 -356  Q 900 -609 1056 -725  Q 1266 -881 1628 -881  Q 2019 -881 2231 -725  Q 2444 -569 2519 -288  Q 2563 -116 2559 434  Q 2191 0 1641 0  Q 956 0 581 494  Q 206 988 206 1678  Q 206 2153 378 2554  Q 550 2956 876 3175  Q 1203 3394 1644 3394  Q 2231 3394 2613 2919  L 2613 3319  L 3131 3319  L 3131 450  Q 3131 -325 2973 -648  Q 2816 -972 2473 -1159  Q 2131 -1347 1631 -1347  Q 1038 -1347 672 -1080  Q 306 -813 319 -275  z M 784 1719  Q 784 1066 1043 766  Q 1303 466 1694 466  Q 2081 466 2343 764  Q 2606 1063 2606 1700  Q 2606 2309 2336 2618  Q 2066 2928 1684 2928  Q 1309 2928 1046 2623  Q 784 2319 784 1719  z " transform="scale(0.015625)" />
       <path id="ArialMT-68" d="M 422 0  L 422 4581  L 984 4581  L 984 2938  Q 1378 3394 1978 3394  Q 2347 3394 2619 3248  Q 2891 3103 3008 2847  Q 3125 2591 3125 2103  L 3125 0  L 2563 0  L 2563 2103  Q 2563 2525 2380 2717  Q 2197 2909 1863 2909  Q 1613 2909 1392 2779  Q 1172 2650 1078 2428  Q 984 2206 984 1816  L 984 0  L 422 0  z " transform="scale(0.015625)" />
      </defs>
      <use xlink:href="#ArialMT-50" />
      <use xlink:href="#ArialMT-65" x="66.699219" />
      <use xlink:href="#ArialMT-74" x="122.314453" />
      <use xlink:href="#ArialMT-61" x="150.097656" />
      <use xlink:href="#ArialMT-6c" x="205.712891" />
      <use xlink:href="#ArialMT-5f" x="227.929688" />
      <use xlink:href="#ArialMT-4c" x="283.544922" />
      <use xlink:href="#ArialMT-65" x="339.160156" />
      <use xlink:href="#ArialMT-6e" x="394.775391" />
      <use xlink:href="#ArialMT-67" x="450.390625" />
      <use xlink:href="#ArialMT-74" x="506.005859" />
      <use xlink:href="#ArialMT-68" x="533.789062" />
     </g>
    </g>
   </g>
   <g id="matplotlib.axis_2">
    <g id="ytick_1">
     <g id="line2d_4">
      <defs>
       <path id="m3c311f8c0a" d="M 0 0  L -3.5 0  " style="stroke: #000000; stroke-width: 0.3" />
      </defs>
      <g>
       <use xlink:href="#m3c311f8c0a" x="11.44875" y="29.263125" style="stroke: #000000; stroke-width: 0.3" />
      </g>
     </g>
     <g id="text_5">
      
      <g style="fill: #444443" transform="translate(0 32.12625) scale(0.08 -0.08)">
       <use xlink:href="#ArialMT-30" />
      </g>
     </g>
    </g>
    <g id="ytick_2">
     <g id="line2d_5">
      <g>
       <use xlink:href="#m3c311f8c0a" x="11.44875" y="2.863125" style="stroke: #000000; stroke-width: 0.3" />
      </g>
     </g>
     <g id="text_6">
      
      <g style="fill: #444443" transform="translate(0 5.72625) scale(0.08 -0.08)">
       <use xlink:href="#ArialMT-31" />
      </g>
     </g>
    </g>
   </g>
   <g id="patch_42">
    <path d="M 11.44875 29.263125  L 11.44875 1.543125  " style="fill: none; stroke: #444443; stroke-width: 0.3; stroke-linejoin: miter; stroke-linecap: square" />
   </g>
   <g id="patch_43">
    <path d="M 11.44875 29.263125  L 195.58875 29.263125  " style="fill: none; stroke: #444443; stroke-width: 0.3; stroke-linejoin: miter; stroke-linecap: square" />
   </g>
  </g>
 </g>
 <defs>
  <clipPath id="p9efa97ac72">
   <rect x="11.44875" y="1.543125" width="184.14" height="27.72" />
  </clipPath>
 </defs>
</svg></g>

<g id="node2" class="node">
<title>leaf1</title>
<polygon fill="none" stroke="#444443" stroke-width="0" points="71.5,-32 41.5,-32 41.5,0 71.5,0 71.5,-32" />
<svg width="22px" height="24px" viewBox="0 0 30.009375 32.484663" version="1.1" preserveAspectRatio="xMinYMin meet" x="45.5" y="-28">
 <metadata>
  <rdf:RDF>
   <ns2:Work>
    <dc:type rdf:resource="http://purl.org/dc/dcmitype/StillImage" />
    <dc:date>2024-04-02T23:20:11.830781</dc:date>
    <dc:format>image/svg+xml</dc:format>
    <dc:creator>
     <ns2:Agent>
      <dc:title>Matplotlib v3.8.2, https://matplotlib.org/</dc:title>
     </ns2:Agent>
    </dc:creator>
   </ns2:Work>
  </rdf:RDF>
 </metadata>
 <defs>
  <style type="text/css">*{stroke-linejoin: round; stroke-linecap: butt}</style>
 </defs>
 <g id="figure_1">
  <g id="patch_1">
   <path d="M 0 32.484663  L 30.009375 32.484663  L 30.009375 -0  L 0 -0  z " style="fill: #ffffff" />
  </g>
  <g id="axes_1">
   <g id="patch_2">
    <path d="M 22.088687 7.083974  C 22.088687 5.683059 21.673125 4.313133 20.894818 3.148315  C 20.116511 1.983497 19.009894 1.075319 17.715617 0.539212  C 16.42134 0.003105 14.996665 -0.137213 13.622668 0.136091  C 12.248671 0.409396 10.98614 1.084233 9.995543 2.07483  C 9.004946 3.065427 8.33011 4.327958 8.056805 5.701955  C 7.7835 7.075952 7.923818 8.500627 8.459925 9.794904  C 8.996032 11.089181 9.90421 12.195798 11.069028 12.974105  C 12.233846 13.752412 13.603772 14.167974 15.004687 14.167974  L 15.004687 7.083974  z " style="fill: #fefebb; stroke: #444443; stroke-width: 0.5; stroke-linejoin: miter" />
   </g>
   <g id="patch_3">
    <path d="M 15.004687 14.167974  C 16.882761 14.167974 18.685834 13.421117 20.013832 12.093119  C 21.34183 10.765121 22.088687 8.962047 22.088687 7.083974  L 15.004687 7.083974  z " style="fill: #a1dab4; stroke: #444443; stroke-width: 0.5; stroke-linejoin: miter" />
   </g>
   <g id="text_1">
    
    <g style="fill: #444443" transform="translate(7.371562 21.176726) scale(0.09 -0.09)">
     <defs>
      <path id="ArialMT-6e" d="M 422 0  L 422 3319  L 928 3319  L 928 2847  Q 1294 3394 1984 3394  Q 2284 3394 2536 3286  Q 2788 3178 2913 3003  Q 3038 2828 3088 2588  Q 3119 2431 3119 2041  L 3119 0  L 2556 0  L 2556 2019  Q 2556 2363 2490 2533  Q 2425 2703 2258 2804  Q 2091 2906 1866 2906  Q 1506 2906 1245 2678  Q 984 2450 984 1813  L 984 0  L 422 0  z " transform="scale(0.015625)" />
      <path id="ArialMT-3d" d="M 3381 2694  L 356 2694  L 356 3219  L 3381 3219  L 3381 2694  z M 3381 1303  L 356 1303  L 356 1828  L 3381 1828  L 3381 1303  z " transform="scale(0.015625)" />
      <path id="ArialMT-34" d="M 2069 0  L 2069 1097  L 81 1097  L 81 1613  L 2172 4581  L 2631 4581  L 2631 1613  L 3250 1613  L 3250 1097  L 2631 1097  L 2631 0  L 2069 0  z M 2069 1613  L 2069 3678  L 634 1613  L 2069 1613  z " transform="scale(0.015625)" />
     </defs>
     <use xlink:href="#ArialMT-6e" />
     <use xlink:href="#ArialMT-3d" x="55.615234" />
     <use xlink:href="#ArialMT-34" x="114.013672" />
    </g>
    
    <g style="fill: #444443" transform="translate(-0 30.695913) scale(0.09 -0.09)">
     <defs>
      <path id="ArialMT-43" d="M 3763 1606  L 4369 1453  Q 4178 706 3683 314  Q 3188 -78 2472 -78  Q 1731 -78 1267 223  Q 803 525 561 1097  Q 319 1669 319 2325  Q 319 3041 592 3573  Q 866 4106 1370 4382  Q 1875 4659 2481 4659  Q 3169 4659 3637 4309  Q 4106 3959 4291 3325  L 3694 3184  Q 3534 3684 3231 3912  Q 2928 4141 2469 4141  Q 1941 4141 1586 3887  Q 1231 3634 1087 3207  Q 944 2781 944 2328  Q 944 1744 1114 1308  Q 1284 872 1643 656  Q 2003 441 2422 441  Q 2931 441 3284 734  Q 3638 1028 3763 1606  z " transform="scale(0.015625)" />
      <path id="ArialMT-6c" d="M 409 0  L 409 4581  L 972 4581  L 972 0  L 409 0  z " transform="scale(0.015625)" />
      <path id="ArialMT-61" d="M 2588 409  Q 2275 144 1986 34  Q 1697 -75 1366 -75  Q 819 -75 525 192  Q 231 459 231 875  Q 231 1119 342 1320  Q 453 1522 633 1644  Q 813 1766 1038 1828  Q 1203 1872 1538 1913  Q 2219 1994 2541 2106  Q 2544 2222 2544 2253  Q 2544 2597 2384 2738  Q 2169 2928 1744 2928  Q 1347 2928 1158 2789  Q 969 2650 878 2297  L 328 2372  Q 403 2725 575 2942  Q 747 3159 1072 3276  Q 1397 3394 1825 3394  Q 2250 3394 2515 3294  Q 2781 3194 2906 3042  Q 3031 2891 3081 2659  Q 3109 2516 3109 2141  L 3109 1391  Q 3109 606 3145 398  Q 3181 191 3288 0  L 2700 0  Q 2613 175 2588 409  z M 2541 1666  Q 2234 1541 1622 1453  Q 1275 1403 1131 1340  Q 988 1278 909 1158  Q 831 1038 831 891  Q 831 666 1001 516  Q 1172 366 1500 366  Q 1825 366 2078 508  Q 2331 650 2450 897  Q 2541 1088 2541 1459  L 2541 1666  z " transform="scale(0.015625)" />
      <path id="ArialMT-73" d="M 197 991  L 753 1078  Q 800 744 1014 566  Q 1228 388 1613 388  Q 2000 388 2187 545  Q 2375 703 2375 916  Q 2375 1106 2209 1216  Q 2094 1291 1634 1406  Q 1016 1563 777 1677  Q 538 1791 414 1992  Q 291 2194 291 2438  Q 291 2659 392 2848  Q 494 3038 669 3163  Q 800 3259 1026 3326  Q 1253 3394 1513 3394  Q 1903 3394 2198 3281  Q 2494 3169 2634 2976  Q 2775 2784 2828 2463  L 2278 2388  Q 2241 2644 2061 2787  Q 1881 2931 1553 2931  Q 1166 2931 1000 2803  Q 834 2675 834 2503  Q 834 2394 903 2306  Q 972 2216 1119 2156  Q 1203 2125 1616 2013  Q 2213 1853 2448 1751  Q 2684 1650 2818 1456  Q 2953 1263 2953 975  Q 2953 694 2789 445  Q 2625 197 2315 61  Q 2006 -75 1616 -75  Q 969 -75 630 194  Q 291 463 197 991  z " transform="scale(0.015625)" />
      <path id="ArialMT-20" transform="scale(0.015625)" />
      <path id="ArialMT-30" d="M 266 2259  Q 266 3072 433 3567  Q 600 4063 929 4331  Q 1259 4600 1759 4600  Q 2128 4600 2406 4451  Q 2684 4303 2865 4023  Q 3047 3744 3150 3342  Q 3253 2941 3253 2259  Q 3253 1453 3087 958  Q 2922 463 2592 192  Q 2263 -78 1759 -78  Q 1097 -78 719 397  Q 266 969 266 2259  z M 844 2259  Q 844 1131 1108 757  Q 1372 384 1759 384  Q 2147 384 2411 759  Q 2675 1134 2675 2259  Q 2675 3391 2411 3762  Q 2147 4134 1753 4134  Q 1366 4134 1134 3806  Q 844 3388 844 2259  z " transform="scale(0.015625)" />
     </defs>
     <use xlink:href="#ArialMT-43" />
     <use xlink:href="#ArialMT-6c" x="72.216797" />
     <use xlink:href="#ArialMT-61" x="94.433594" />
     <use xlink:href="#ArialMT-73" x="150.048828" />
     <use xlink:href="#ArialMT-73" x="200.048828" />
     <use xlink:href="#ArialMT-20" x="250.048828" />
     <use xlink:href="#ArialMT-30" x="277.832031" />
    </g>
   </g>
  </g>
 </g>
</svg></g>

<g id="edge1" class="edge">
<title>node0-&gt;leaf1</title>
<path fill="none" stroke="#444443" stroke-width="0.3" d="M70.04,-64.7C67.32,-55.13 64.31,-44.52 61.82,-35.74" />
<polygon fill="#444443" stroke="#444443" stroke-width="0.3" points="63.2,-35.49 60.76,-32.03 60.51,-36.26 63.2,-35.49" />
<text text-anchor="start" x="68.5" y="-43.2" font-family="Arial" font-size="14.00" fill="#444443"> &#160;&#8804;</text>
</g>

<g id="node3" class="node">
<title>leaf2</title>
<polygon fill="none" stroke="#444443" stroke-width="0" points="115.5,-31 85.5,-31 85.5,-1 115.5,-1 115.5,-31" />
<svg width="22px" height="22px" viewBox="0 0 30.009375 29.922129" version="1.1" preserveAspectRatio="xMinYMin meet" x="89.5" y="-27">
 <metadata>
  <rdf:RDF>
   <ns2:Work>
    <dc:type rdf:resource="http://purl.org/dc/dcmitype/StillImage" />
    <dc:date>2024-04-02T23:20:11.857249</dc:date>
    <dc:format>image/svg+xml</dc:format>
    <dc:creator>
     <ns2:Agent>
      <dc:title>Matplotlib v3.8.2, https://matplotlib.org/</dc:title>
     </ns2:Agent>
    </dc:creator>
   </ns2:Work>
  </rdf:RDF>
 </metadata>
 <defs>
  <style type="text/css">*{stroke-linejoin: round; stroke-linecap: butt}</style>
 </defs>
 <g id="figure_1">
  <g id="patch_1">
   <path d="M 0 29.922129  L 30.009375 29.922129  L 30.009375 0  L 0 0  z " style="fill: #ffffff" />
  </g>
  <g id="axes_1">
   <g id="patch_2">
    <path d="M 20.856687 5.852  C 20.856687 5.083522 20.705314 4.322517 20.411231 3.612537  C 20.117147 2.902556 19.686072 2.257407 19.142676 1.714011  C 18.599281 1.170615 17.954132 0.739541 17.244151 0.445457  C 16.53417 0.151373 15.773165 -0 15.004688 -0  C 14.23621 -0 13.475205 0.151373 12.765224 0.445457  C 12.055243 0.739541 11.410094 1.170615 10.866699 1.714011  C 10.323303 2.257407 9.892228 2.902556 9.598144 3.612537  C 9.304061 4.322517 9.152688 5.083522 9.152688 5.852  C 9.152688 6.620478 9.304061 7.381483 9.598144 8.091463  C 9.892228 8.801444 10.323303 9.446593 10.866699 9.989989  C 11.410094 10.533385 12.055243 10.964459 12.765224 11.258543  C 13.475205 11.552627 14.23621 11.704 15.004687 11.704  C 15.773165 11.704 16.53417 11.552627 17.244151 11.258543  C 17.954132 10.964459 18.599281 10.533385 19.142676 9.989989  C 19.686072 9.446593 20.117147 8.801444 20.411231 8.091463  C 20.705314 7.381483 20.856687 6.620478 20.856687 5.852  M 15.004688 5.852  z " style="fill: #a1dab4; stroke: #444443; stroke-width: 0.5; stroke-linejoin: miter" />
   </g>
   <g id="text_1">
    
    <g style="fill: #444443" transform="translate(7.371563 18.614191) scale(0.09 -0.09)">
     <defs>
      <path id="ArialMT-6e" d="M 422 0  L 422 3319  L 928 3319  L 928 2847  Q 1294 3394 1984 3394  Q 2284 3394 2536 3286  Q 2788 3178 2913 3003  Q 3038 2828 3088 2588  Q 3119 2431 3119 2041  L 3119 0  L 2556 0  L 2556 2019  Q 2556 2363 2490 2533  Q 2425 2703 2258 2804  Q 2091 2906 1866 2906  Q 1506 2906 1245 2678  Q 984 2450 984 1813  L 984 0  L 422 0  z " transform="scale(0.015625)" />
      <path id="ArialMT-3d" d="M 3381 2694  L 356 2694  L 356 3219  L 3381 3219  L 3381 2694  z M 3381 1303  L 356 1303  L 356 1828  L 3381 1828  L 3381 1303  z " transform="scale(0.015625)" />
      <path id="ArialMT-32" d="M 3222 541  L 3222 0  L 194 0  Q 188 203 259 391  Q 375 700 629 1000  Q 884 1300 1366 1694  Q 2113 2306 2375 2664  Q 2638 3022 2638 3341  Q 2638 3675 2398 3904  Q 2159 4134 1775 4134  Q 1369 4134 1125 3890  Q 881 3647 878 3216  L 300 3275  Q 359 3922 746 4261  Q 1134 4600 1788 4600  Q 2447 4600 2831 4234  Q 3216 3869 3216 3328  Q 3216 3053 3103 2787  Q 2991 2522 2730 2228  Q 2469 1934 1863 1422  Q 1356 997 1212 845  Q 1069 694 975 541  L 3222 541  z " transform="scale(0.015625)" />
     </defs>
     <use xlink:href="#ArialMT-6e" />
     <use xlink:href="#ArialMT-3d" x="55.615234" />
     <use xlink:href="#ArialMT-32" x="114.013672" />
    </g>
    
    <g style="fill: #444443" transform="translate(0 28.133379) scale(0.09 -0.09)">
     <defs>
      <path id="ArialMT-43" d="M 3763 1606  L 4369 1453  Q 4178 706 3683 314  Q 3188 -78 2472 -78  Q 1731 -78 1267 223  Q 803 525 561 1097  Q 319 1669 319 2325  Q 319 3041 592 3573  Q 866 4106 1370 4382  Q 1875 4659 2481 4659  Q 3169 4659 3637 4309  Q 4106 3959 4291 3325  L 3694 3184  Q 3534 3684 3231 3912  Q 2928 4141 2469 4141  Q 1941 4141 1586 3887  Q 1231 3634 1087 3207  Q 944 2781 944 2328  Q 944 1744 1114 1308  Q 1284 872 1643 656  Q 2003 441 2422 441  Q 2931 441 3284 734  Q 3638 1028 3763 1606  z " transform="scale(0.015625)" />
      <path id="ArialMT-6c" d="M 409 0  L 409 4581  L 972 4581  L 972 0  L 409 0  z " transform="scale(0.015625)" />
      <path id="ArialMT-61" d="M 2588 409  Q 2275 144 1986 34  Q 1697 -75 1366 -75  Q 819 -75 525 192  Q 231 459 231 875  Q 231 1119 342 1320  Q 453 1522 633 1644  Q 813 1766 1038 1828  Q 1203 1872 1538 1913  Q 2219 1994 2541 2106  Q 2544 2222 2544 2253  Q 2544 2597 2384 2738  Q 2169 2928 1744 2928  Q 1347 2928 1158 2789  Q 969 2650 878 2297  L 328 2372  Q 403 2725 575 2942  Q 747 3159 1072 3276  Q 1397 3394 1825 3394  Q 2250 3394 2515 3294  Q 2781 3194 2906 3042  Q 3031 2891 3081 2659  Q 3109 2516 3109 2141  L 3109 1391  Q 3109 606 3145 398  Q 3181 191 3288 0  L 2700 0  Q 2613 175 2588 409  z M 2541 1666  Q 2234 1541 1622 1453  Q 1275 1403 1131 1340  Q 988 1278 909 1158  Q 831 1038 831 891  Q 831 666 1001 516  Q 1172 366 1500 366  Q 1825 366 2078 508  Q 2331 650 2450 897  Q 2541 1088 2541 1459  L 2541 1666  z " transform="scale(0.015625)" />
      <path id="ArialMT-73" d="M 197 991  L 753 1078  Q 800 744 1014 566  Q 1228 388 1613 388  Q 2000 388 2187 545  Q 2375 703 2375 916  Q 2375 1106 2209 1216  Q 2094 1291 1634 1406  Q 1016 1563 777 1677  Q 538 1791 414 1992  Q 291 2194 291 2438  Q 291 2659 392 2848  Q 494 3038 669 3163  Q 800 3259 1026 3326  Q 1253 3394 1513 3394  Q 1903 3394 2198 3281  Q 2494 3169 2634 2976  Q 2775 2784 2828 2463  L 2278 2388  Q 2241 2644 2061 2787  Q 1881 2931 1553 2931  Q 1166 2931 1000 2803  Q 834 2675 834 2503  Q 834 2394 903 2306  Q 972 2216 1119 2156  Q 1203 2125 1616 2013  Q 2213 1853 2448 1751  Q 2684 1650 2818 1456  Q 2953 1263 2953 975  Q 2953 694 2789 445  Q 2625 197 2315 61  Q 2006 -75 1616 -75  Q 969 -75 630 194  Q 291 463 197 991  z " transform="scale(0.015625)" />
      <path id="ArialMT-20" transform="scale(0.015625)" />
      <path id="ArialMT-31" d="M 2384 0  L 1822 0  L 1822 3584  Q 1619 3391 1289 3197  Q 959 3003 697 2906  L 697 3450  Q 1169 3672 1522 3987  Q 1875 4303 2022 4600  L 2384 4600  L 2384 0  z " transform="scale(0.015625)" />
     </defs>
     <use xlink:href="#ArialMT-43" />
     <use xlink:href="#ArialMT-6c" x="72.216797" />
     <use xlink:href="#ArialMT-61" x="94.433594" />
     <use xlink:href="#ArialMT-73" x="150.048828" />
     <use xlink:href="#ArialMT-73" x="200.048828" />
     <use xlink:href="#ArialMT-20" x="250.048828" />
     <use xlink:href="#ArialMT-31" x="277.832031" />
    </g>
   </g>
  </g>
 </g>
</svg></g>

<g id="edge2" class="edge">
<title>node0-&gt;leaf2</title>
<path fill="none" stroke="#444443" stroke-width="0.3" d="M85.67,-64.7C88.74,-54.85 92.14,-43.89 94.92,-34.96" />
<polygon fill="#444443" stroke="#444443" stroke-width="0.3" points="96.24,-35.42 96.09,-31.19 93.57,-34.59 96.24,-35.42" />
<text text-anchor="start" x="93.5" y="-43.2" font-family="Arial" font-size="14.00" fill="#444443"> &#160;&gt;</text>
</g>


<g id="node4" class="node">
<title>legend</title>
<polygon fill="none" stroke="black" stroke-width="0" points="224.66,-115.66 162.34,-115.66 162.34,-68.34 224.66,-68.34 224.66,-115.66" />
<svg width="58px" height="43px" viewBox="0 0 77.84375 58.421875" version="1.1" preserveAspectRatio="xMinYMin meet" x="164.5" y="-113.5">
 <metadata>
  <rdf:RDF>
   <ns2:Work>
    <dc:type rdf:resource="http://purl.org/dc/dcmitype/StillImage" />
    <dc:date>2024-04-02T23:20:11.700394</dc:date>
    <dc:format>image/svg+xml</dc:format>
    <dc:creator>
     <ns2:Agent>
      <dc:title>Matplotlib v3.8.2, https://matplotlib.org/</dc:title>
     </ns2:Agent>
    </dc:creator>
   </ns2:Work>
  </rdf:RDF>
 </metadata>
 <defs>
  <style type="text/css">*{stroke-linejoin: round; stroke-linecap: butt}</style>
 </defs>
 <g id="figure_1">
  <g id="patch_1">
   <path d="M 0 58.421875  L 77.84375 58.421875  L 77.84375 0  L 0 0  z " style="fill: #ffffff" />
  </g>
  <g id="axes_1">
   <g id="legend_1">
    <g id="patch_2">
     <path d="M 2 58.421875  L 70.84375 58.421875  Q 72.84375 58.421875 72.84375 56.421875  L 72.84375 7  Q 72.84375 5 70.84375 5  L 2 5  Q 0 5 0 7  L 0 56.421875  Q 0 58.421875 2 58.421875  z " style="fill: #ffffff; opacity: 0.8; stroke: #444443; stroke-width: 0.5; stroke-linejoin: miter" />
    </g>
    <g id="text_1">
     
     <g style="fill: #444443" transform="translate(23.364062 20.157812) scale(0.1 -0.1)">
      <defs>
       <path id="Arial-BoldMT-4c" d="M 491 0  L 491 4544  L 1416 4544  L 1416 772  L 3716 772  L 3716 0  L 491 0  z " transform="scale(0.015625)" />
       <path id="Arial-BoldMT-61" d="M 1116 2306  L 319 2450  Q 453 2931 781 3162  Q 1109 3394 1756 3394  Q 2344 3394 2631 3255  Q 2919 3116 3036 2902  Q 3153 2688 3153 2116  L 3144 1091  Q 3144 653 3186 445  Q 3228 238 3344 0  L 2475 0  Q 2441 88 2391 259  Q 2369 338 2359 363  Q 2134 144 1878 34  Q 1622 -75 1331 -75  Q 819 -75 523 203  Q 228 481 228 906  Q 228 1188 362 1408  Q 497 1628 739 1745  Q 981 1863 1438 1950  Q 2053 2066 2291 2166  L 2291 2253  Q 2291 2506 2166 2614  Q 2041 2722 1694 2722  Q 1459 2722 1328 2630  Q 1197 2538 1116 2306  z M 2291 1594  Q 2122 1538 1756 1459  Q 1391 1381 1278 1306  Q 1106 1184 1106 997  Q 1106 813 1243 678  Q 1381 544 1594 544  Q 1831 544 2047 700  Q 2206 819 2256 991  Q 2291 1103 2291 1419  L 2291 1594  z " transform="scale(0.015625)" />
       <path id="Arial-BoldMT-62" d="M 422 0  L 422 4581  L 1300 4581  L 1300 2931  Q 1706 3394 2263 3394  Q 2869 3394 3266 2955  Q 3663 2516 3663 1694  Q 3663 844 3258 384  Q 2853 -75 2275 -75  Q 1991 -75 1714 67  Q 1438 209 1238 488  L 1238 0  L 422 0  z M 1294 1731  Q 1294 1216 1456 969  Q 1684 619 2063 619  Q 2353 619 2558 867  Q 2763 1116 2763 1650  Q 2763 2219 2556 2470  Q 2350 2722 2028 2722  Q 1713 2722 1503 2476  Q 1294 2231 1294 1731  z " transform="scale(0.015625)" />
       <path id="Arial-BoldMT-65" d="M 2381 1056  L 3256 909  Q 3088 428 2723 176  Q 2359 -75 1813 -75  Q 947 -75 531 491  Q 203 944 203 1634  Q 203 2459 634 2926  Q 1066 3394 1725 3394  Q 2466 3394 2894 2905  Q 3322 2416 3303 1406  L 1103 1406  Q 1113 1016 1316 798  Q 1519 581 1822 581  Q 2028 581 2168 693  Q 2309 806 2381 1056  z M 2431 1944  Q 2422 2325 2234 2523  Q 2047 2722 1778 2722  Q 1491 2722 1303 2513  Q 1116 2303 1119 1944  L 2431 1944  z " transform="scale(0.015625)" />
       <path id="Arial-BoldMT-6c" d="M 459 0  L 459 4581  L 1338 4581  L 1338 0  L 459 0  z " transform="scale(0.015625)" />
      </defs>
      <use xlink:href="#Arial-BoldMT-4c" />
      <use xlink:href="#Arial-BoldMT-61" x="61.083984" />
      <use xlink:href="#Arial-BoldMT-62" x="116.699219" />
      <use xlink:href="#Arial-BoldMT-65" x="177.783203" />
      <use xlink:href="#Arial-BoldMT-6c" x="233.398438" />
     </g>
    </g>
    <g id="patch_3">
     <path d="M 8 34.289062  L 28 34.289062  L 28 27.289062  L 8 27.289062  z " style="fill: #fefebb; stroke: #444443; stroke-width: 0.4; stroke-linejoin: miter" />
    </g>
    <g id="text_2">
     
     <g style="fill: #444443" transform="translate(31.5 34.289062) scale(0.1 -0.1)">
      <defs>
       <path id="ArialMT-43" d="M 3763 1606  L 4369 1453  Q 4178 706 3683 314  Q 3188 -78 2472 -78  Q 1731 -78 1267 223  Q 803 525 561 1097  Q 319 1669 319 2325  Q 319 3041 592 3573  Q 866 4106 1370 4382  Q 1875 4659 2481 4659  Q 3169 4659 3637 4309  Q 4106 3959 4291 3325  L 3694 3184  Q 3534 3684 3231 3912  Q 2928 4141 2469 4141  Q 1941 4141 1586 3887  Q 1231 3634 1087 3207  Q 944 2781 944 2328  Q 944 1744 1114 1308  Q 1284 872 1643 656  Q 2003 441 2422 441  Q 2931 441 3284 734  Q 3638 1028 3763 1606  z " transform="scale(0.015625)" />
       <path id="ArialMT-6c" d="M 409 0  L 409 4581  L 972 4581  L 972 0  L 409 0  z " transform="scale(0.015625)" />
       <path id="ArialMT-61" d="M 2588 409  Q 2275 144 1986 34  Q 1697 -75 1366 -75  Q 819 -75 525 192  Q 231 459 231 875  Q 231 1119 342 1320  Q 453 1522 633 1644  Q 813 1766 1038 1828  Q 1203 1872 1538 1913  Q 2219 1994 2541 2106  Q 2544 2222 2544 2253  Q 2544 2597 2384 2738  Q 2169 2928 1744 2928  Q 1347 2928 1158 2789  Q 969 2650 878 2297  L 328 2372  Q 403 2725 575 2942  Q 747 3159 1072 3276  Q 1397 3394 1825 3394  Q 2250 3394 2515 3294  Q 2781 3194 2906 3042  Q 3031 2891 3081 2659  Q 3109 2516 3109 2141  L 3109 1391  Q 3109 606 3145 398  Q 3181 191 3288 0  L 2700 0  Q 2613 175 2588 409  z M 2541 1666  Q 2234 1541 1622 1453  Q 1275 1403 1131 1340  Q 988 1278 909 1158  Q 831 1038 831 891  Q 831 666 1001 516  Q 1172 366 1500 366  Q 1825 366 2078 508  Q 2331 650 2450 897  Q 2541 1088 2541 1459  L 2541 1666  z " transform="scale(0.015625)" />
       <path id="ArialMT-73" d="M 197 991  L 753 1078  Q 800 744 1014 566  Q 1228 388 1613 388  Q 2000 388 2187 545  Q 2375 703 2375 916  Q 2375 1106 2209 1216  Q 2094 1291 1634 1406  Q 1016 1563 777 1677  Q 538 1791 414 1992  Q 291 2194 291 2438  Q 291 2659 392 2848  Q 494 3038 669 3163  Q 800 3259 1026 3326  Q 1253 3394 1513 3394  Q 1903 3394 2198 3281  Q 2494 3169 2634 2976  Q 2775 2784 2828 2463  L 2278 2388  Q 2241 2644 2061 2787  Q 1881 2931 1553 2931  Q 1166 2931 1000 2803  Q 834 2675 834 2503  Q 834 2394 903 2306  Q 972 2216 1119 2156  Q 1203 2125 1616 2013  Q 2213 1853 2448 1751  Q 2684 1650 2818 1456  Q 2953 1263 2953 975  Q 2953 694 2789 445  Q 2625 197 2315 61  Q 2006 -75 1616 -75  Q 969 -75 630 194  Q 291 463 197 991  z " transform="scale(0.015625)" />
       <path id="ArialMT-20" transform="scale(0.015625)" />
       <path id="ArialMT-30" d="M 266 2259  Q 266 3072 433 3567  Q 600 4063 929 4331  Q 1259 4600 1759 4600  Q 2128 4600 2406 4451  Q 2684 4303 2865 4023  Q 3047 3744 3150 3342  Q 3253 2941 3253 2259  Q 3253 1453 3087 958  Q 2922 463 2592 192  Q 2263 -78 1759 -78  Q 1097 -78 719 397  Q 266 969 266 2259  z M 844 2259  Q 844 1131 1108 757  Q 1372 384 1759 384  Q 2147 384 2411 759  Q 2675 1134 2675 2259  Q 2675 3391 2411 3762  Q 2147 4134 1753 4134  Q 1366 4134 1134 3806  Q 844 3388 844 2259  z " transform="scale(0.015625)" />
      </defs>
      <use xlink:href="#ArialMT-43" />
      <use xlink:href="#ArialMT-6c" x="72.216797" />
      <use xlink:href="#ArialMT-61" x="94.433594" />
      <use xlink:href="#ArialMT-73" x="150.048828" />
      <use xlink:href="#ArialMT-73" x="200.048828" />
      <use xlink:href="#ArialMT-20" x="250.048828" />
      <use xlink:href="#ArialMT-30" x="277.832031" />
     </g>
    </g>
    <g id="patch_4">
     <path d="M 8 48.434375  L 28 48.434375  L 28 41.434375  L 8 41.434375  z " style="fill: #a1dab4; stroke: #444443; stroke-width: 0.4; stroke-linejoin: miter" />
    </g>
    <g id="text_3">
     
     <g style="fill: #444443" transform="translate(31.5 48.434375) scale(0.1 -0.1)">
      <defs>
       <path id="ArialMT-31" d="M 2384 0  L 1822 0  L 1822 3584  Q 1619 3391 1289 3197  Q 959 3003 697 2906  L 697 3450  Q 1169 3672 1522 3987  Q 1875 4303 2022 4600  L 2384 4600  L 2384 0  z " transform="scale(0.015625)" />
      </defs>
      <use xlink:href="#ArialMT-43" />
      <use xlink:href="#ArialMT-6c" x="72.216797" />
      <use xlink:href="#ArialMT-61" x="94.433594" />
      <use xlink:href="#ArialMT-73" x="150.048828" />
      <use xlink:href="#ArialMT-73" x="200.048828" />
      <use xlink:href="#ArialMT-20" x="250.048828" />
      <use xlink:href="#ArialMT-31" x="277.832031" />
     </g>
    </g>
   </g>
  </g>
 </g>
</svg></g>
</g>
</svg>