<svg xmlns="http://www.w3.org/2000/svg" xmlns:dc="http://purl.org/dc/elements/1.1/" xmlns:ns2="http://creativecommons.org/ns#" xmlns:rdf="http://www.w3.org/1999/02/22-rdf-syntax-ns#" xmlns:xlink="http://www.w3.org/1999/xlink" width="115.0" height="71.0" viewBox="0.0 0.0 115.0 71.32">
<g id="graph0" class="graph" transform="scale(1.0 1.0) rotate(0) translate(4 67.32)">
<title>G</title>
<polygon fill="white" stroke="none" points="-4,4 -4,-67.32 111,-67.32 111,4 -4,4" />
<g id="clust1" class="cluster">
<title>cluster_legend</title>
</g>

<g id="node1" class="node">
<title>leaf0</title>
<polygon fill="none" stroke="#444443" stroke-width="0" points="30,-48.66 0,-48.66 0,-14.66 30,-14.66 30,-48.66" />
<svg width="22px" height="26px" viewBox="0 0 30.009375 35.047249" version="1.1" preserveAspectRatio="xMinYMin meet" x="4" y="-44.66">
 <metadata>
  <rdf:RDF>
   <ns2:Work>
    <dc:type rdf:resource="http://purl.org/dc/dcmitype/StillImage" />
    <dc:date>2024-04-03T14:56:45.269073</dc:date>
    <dc:format>image/svg+xml</dc:format>
    <dc:creator>
     <ns2:Agent>
      <dc:title>Matplotlib v3.8.2, https://matplotlib.org/</dc:title>
     </ns2:Agent>
    </dc:creator>
   </ns2:Work>
  </rdf:RDF>
 </metadata>
 <defs>
  <style type="text/css">*{stroke-linejoin: round; stroke-linecap: butt}</style>
 </defs>
 <g id="figure_1">
  <g id="patch_1">
   <path d="M 0 35.047249  L 30.009375 35.047249  L 30.009375 0  L 0 0  z " style="fill: #ffffff" />
  </g>
  <g id="axes_1">
   <g id="patch_2">
    <path d="M 23.320687 8.316  C 23.320687 6.111306 22.443942 3.994654 20.884987 2.4357  C 19.326033 0.876746 17.209382 -0 15.004687 -0  C 12.799993 -0 10.683342 0.876746 9.124388 2.4357  C 7.565433 3.994654 6.688687 6.111306 6.688687 8.316  L 15.004687 8.316  z " style="fill: #fefebb; stroke: #444443; stroke-width: 0.5; stroke-linejoin: miter" />
   </g>
   <g id="patch_3">
    <path d="M 6.688687 8.316  C 6.688687 10.520694 7.565433 12.637346 9.124388 14.1963  C 10.683342 15.755254 12.799993 16.632 15.004687 16.632  C 17.209382 16.632 19.326033 15.755254 20.884987 14.1963  C 22.443942 12.637346 23.320687 10.520694 23.320687 8.316  L 15.004687 8.316  z " style="fill: #a1dab4; stroke: #444443; stroke-width: 0.5; stroke-linejoin: miter" />
   </g>
   <g id="text_1">
    
    <g style="fill: #444443" transform="translate(7.371562 23.739311) scale(0.09 -0.09)">
     <defs>
      <path id="ArialMT-6e" d="M 422 0  L 422 3319  L 928 3319  L 928 2847  Q 1294 3394 1984 3394  Q 2284 3394 2536 3286  Q 2788 3178 2913 3003  Q 3038 2828 3088 2588  Q 3119 2431 3119 2041  L 3119 0  L 2556 0  L 2556 2019  Q 2556 2363 2490 2533  Q 2425 2703 2258 2804  Q 2091 2906 1866 2906  Q 1506 2906 1245 2678  Q 984 2450 984 1813  L 984 0  L 422 0  z " transform="scale(0.015625)" />
      <path id="ArialMT-3d" d="M 3381 2694  L 356 2694  L 356 3219  L 3381 3219  L 3381 2694  z M 3381 1303  L 356 1303  L 356 1828  L 3381 1828  L 3381 1303  z " transform="scale(0.015625)" />
      <path id="ArialMT-36" d="M 3184 3459  L 2625 3416  Q 2550 3747 2413 3897  Q 2184 4138 1850 4138  Q 1581 4138 1378 3988  Q 1113 3794 959 3422  Q 806 3050 800 2363  Q 1003 2672 1297 2822  Q 1591 2972 1913 2972  Q 2475 2972 2870 2558  Q 3266 2144 3266 1488  Q 3266 1056 3080 686  Q 2894 316 2569 119  Q 2244 -78 1831 -78  Q 1128 -78 684 439  Q 241 956 241 2144  Q 241 3472 731 4075  Q 1159 4600 1884 4600  Q 2425 4600 2770 4297  Q 3116 3994 3184 3459  z M 888 1484  Q 888 1194 1011 928  Q 1134 663 1356 523  Q 1578 384 1822 384  Q 2178 384 2434 671  Q 2691 959 2691 1453  Q 2691 1928 2437 2201  Q 2184 2475 1800 2475  Q 1419 2475 1153 2201  Q 888 1928 888 1484  z " transform="scale(0.015625)" />
     </defs>
     <use xlink:href="#ArialMT-6e" />
     <use xlink:href="#ArialMT-3d" x="55.615234" />
     <use xlink:href="#ArialMT-36" x="114.013672" />
    </g>
    
    <g style="fill: #444443" transform="translate(0 33.258499) scale(0.09 -0.09)">
     <defs>
      <path id="ArialMT-43" d="M 3763 1606  L 4369 1453  Q 4178 706 3683 314  Q 3188 -78 2472 -78  Q 1731 -78 1267 223  Q 803 525 561 1097  Q 319 1669 319 2325  Q 319 3041 592 3573  Q 866 4106 1370 4382  Q 1875 4659 2481 4659  Q 3169 4659 3637 4309  Q 4106 3959 4291 3325  L 3694 3184  Q 3534 3684 3231 3912  Q 2928 4141 2469 4141  Q 1941 4141 1586 3887  Q 1231 3634 1087 3207  Q 944 2781 944 2328  Q 944 1744 1114 1308  Q 1284 872 1643 656  Q 2003 441 2422 441  Q 2931 441 3284 734  Q 3638 1028 3763 1606  z " transform="scale(0.015625)" />
      <path id="ArialMT-6c" d="M 409 0  L 409 4581  L 972 4581  L 972 0  L 409 0  z " transform="scale(0.015625)" />
      <path id="ArialMT-61" d="M 2588 409  Q 2275 144 1986 34  Q 1697 -75 1366 -75  Q 819 -75 525 192  Q 231 459 231 875  Q 231 1119 342 1320  Q 453 1522 633 1644  Q 813 1766 1038 1828  Q 1203 1872 1538 1913  Q 2219 1994 2541 2106  Q 2544 2222 2544 2253  Q 2544 2597 2384 2738  Q 2169 2928 1744 2928  Q 1347 2928 1158 2789  Q 969 2650 878 2297  L 328 2372  Q 403 2725 575 2942  Q 747 3159 1072 3276  Q 1397 3394 1825 3394  Q 2250 3394 2515 3294  Q 2781 3194 2906 3042  Q 3031 2891 3081 2659  Q 3109 2516 3109 2141  L 3109 1391  Q 3109 606 3145 398  Q 3181 191 3288 0  L 2700 0  Q 2613 175 2588 409  z M 2541 1666  Q 2234 1541 1622 1453  Q 1275 1403 1131 1340  Q 988 1278 909 1158  Q 831 1038 831 891  Q 831 666 1001 516  Q 1172 366 1500 366  Q 1825 366 2078 508  Q 2331 650 2450 897  Q 2541 1088 2541 1459  L 2541 1666  z " transform="scale(0.015625)" />
      <path id="ArialMT-73" d="M 197 991  L 753 1078  Q 800 744 1014 566  Q 1228 388 1613 388  Q 2000 388 2187 545  Q 2375 703 2375 916  Q 2375 1106 2209 1216  Q 2094 1291 1634 1406  Q 1016 1563 777 1677  Q 538 1791 414 1992  Q 291 2194 291 2438  Q 291 2659 392 2848  Q 494 3038 669 3163  Q 800 3259 1026 3326  Q 1253 3394 1513 3394  Q 1903 3394 2198 3281  Q 2494 3169 2634 2976  Q 2775 2784 2828 2463  L 2278 2388  Q 2241 2644 2061 2787  Q 1881 2931 1553 2931  Q 1166 2931 1000 2803  Q 834 2675 834 2503  Q 834 2394 903 2306  Q 972 2216 1119 2156  Q 1203 2125 1616 2013  Q 2213 1853 2448 1751  Q 2684 1650 2818 1456  Q 2953 1263 2953 975  Q 2953 694 2789 445  Q 2625 197 2315 61  Q 2006 -75 1616 -75  Q 969 -75 630 194  Q 291 463 197 991  z " transform="scale(0.015625)" />
      <path id="ArialMT-20" transform="scale(0.015625)" />
      <path id="ArialMT-30" d="M 266 2259  Q 266 3072 433 3567  Q 600 4063 929 4331  Q 1259 4600 1759 4600  Q 2128 4600 2406 4451  Q 2684 4303 2865 4023  Q 3047 3744 3150 3342  Q 3253 2941 3253 2259  Q 3253 1453 3087 958  Q 2922 463 2592 192  Q 2263 -78 1759 -78  Q 1097 -78 719 397  Q 266 969 266 2259  z M 844 2259  Q 844 1131 1108 757  Q 1372 384 1759 384  Q 2147 384 2411 759  Q 2675 1134 2675 2259  Q 2675 3391 2411 3762  Q 2147 4134 1753 4134  Q 1366 4134 1134 3806  Q 844 3388 844 2259  z " transform="scale(0.015625)" />
     </defs>
     <use xlink:href="#ArialMT-43" />
     <use xlink:href="#ArialMT-6c" x="72.216797" />
     <use xlink:href="#ArialMT-61" x="94.433594" />
     <use xlink:href="#ArialMT-73" x="150.048828" />
     <use xlink:href="#ArialMT-73" x="200.048828" />
     <use xlink:href="#ArialMT-20" x="250.048828" />
     <use xlink:href="#ArialMT-30" x="277.832031" />
    </g>
   </g>
  </g>
 </g>
</svg></g>

<g id="node2" class="node">
<title>legend</title>
<polygon fill="none" stroke="black" stroke-width="0" points="99.16,-55.32 36.84,-55.32 36.84,-8 99.16,-8 99.16,-55.32" />
<svg width="58px" height="43px" viewBox="0 0 77.84375 58.421875" version="1.1" preserveAspectRatio="xMinYMin meet" x="39" y="-53.16">
 <metadata>
  <rdf:RDF>
   <ns2:Work>
    <dc:type rdf:resource="http://purl.org/dc/dcmitype/StillImage" />
    <dc:date>2024-04-03T14:56:45.225002</dc:date>
    <dc:format>image/svg+xml</dc:format>
    <dc:creator>
     <ns2:Agent>
      <dc:title>Matplotlib v3.8.2, https://matplotlib.org/</dc:title>
     </ns2:Agent>
    </dc:creator>
   </ns2:Work>
  </rdf:RDF>
 </metadata>
 <defs>
  <style type="text/css">*{stroke-linejoin: round; stroke-linecap: butt}</style>
 </defs>
 <g id="figure_1">
  <g id="patch_1">
   <path d="M 0 58.421875  L 77.84375 58.421875  L 77.84375 0  L 0 0  z " style="fill: #ffffff" />
  </g>
  <g id="axes_1">
   <g id="legend_1">
    <g id="patch_2">
     <path d="M 2 58.421875  L 70.84375 58.421875  Q 72.84375 58.421875 72.84375 56.421875  L 72.84375 7  Q 72.84375 5 70.84375 5  L 2 5  Q 0 5 0 7  L 0 56.421875  Q 0 58.421875 2 58.421875  z " style="fill: #ffffff; opacity: 0.8; stroke: #444443; stroke-width: 0.5; stroke-linejoin: miter" />
    </g>
    <g id="text_1">
     
     <g style="fill: #444443" transform="translate(23.364062 20.157812) scale(0.1 -0.1)">
      <defs>
       <path id="Arial-BoldMT-4c" d="M 491 0  L 491 4544  L 1416 4544  L 1416 772  L 3716 772  L 3716 0  L 491 0  z " transform="scale(0.015625)" />
       <path id="Arial-BoldMT-61" d="M 1116 2306  L 319 2450  Q 453 2931 781 3162  Q 1109 3394 1756 3394  Q 2344 3394 2631 3255  Q 2919 3116 3036 2902  Q 3153 2688 3153 2116  L 3144 1091  Q 3144 653 3186 445  Q 3228 238 3344 0  L 2475 0  Q 2441 88 2391 259  Q 2369 338 2359 363  Q 2134 144 1878 34  Q 1622 -75 1331 -75  Q 819 -75 523 203  Q 228 481 228 906  Q 228 1188 362 1408  Q 497 1628 739 1745  Q 981 1863 1438 1950  Q 2053 2066 2291 2166  L 2291 2253  Q 2291 2506 2166 2614  Q 2041 2722 1694 2722  Q 1459 2722 1328 2630  Q 1197 2538 1116 2306  z M 2291 1594  Q 2122 1538 1756 1459  Q 1391 1381 1278 1306  Q 1106 1184 1106 997  Q 1106 813 1243 678  Q 1381 544 1594 544  Q 1831 544 2047 700  Q 2206 819 2256 991  Q 2291 1103 2291 1419  L 2291 1594  z " transform="scale(0.015625)" />
       <path id="Arial-BoldMT-62" d="M 422 0  L 422 4581  L 1300 4581  L 1300 2931  Q 1706 3394 2263 3394  Q 2869 3394 3266 2955  Q 3663 2516 3663 1694  Q 3663 844 3258 384  Q 2853 -75 2275 -75  Q 1991 -75 1714 67  Q 1438 209 1238 488  L 1238 0  L 422 0  z M 1294 1731  Q 1294 1216 1456 969  Q 1684 619 2063 619  Q 2353 619 2558 867  Q 2763 1116 2763 1650  Q 2763 2219 2556 2470  Q 2350 2722 2028 2722  Q 1713 2722 1503 2476  Q 1294 2231 1294 1731  z " transform="scale(0.015625)" />
       <path id="Arial-BoldMT-65" d="M 2381 1056  L 3256 909  Q 3088 428 2723 176  Q 2359 -75 1813 -75  Q 947 -75 531 491  Q 203 944 203 1634  Q 203 2459 634 2926  Q 1066 3394 1725 3394  Q 2466 3394 2894 2905  Q 3322 2416 3303 1406  L 1103 1406  Q 1113 1016 1316 798  Q 1519 581 1822 581  Q 2028 581 2168 693  Q 2309 806 2381 1056  z M 2431 1944  Q 2422 2325 2234 2523  Q 2047 2722 1778 2722  Q 1491 2722 1303 2513  Q 1116 2303 1119 1944  L 2431 1944  z " transform="scale(0.015625)" />
       <path id="Arial-BoldMT-6c" d="M 459 0  L 459 4581  L 1338 4581  L 1338 0  L 459 0  z " transform="scale(0.015625)" />
      </defs>
      <use xlink:href="#Arial-BoldMT-4c" />
      <use xlink:href="#Arial-BoldMT-61" x="61.083984" />
      <use xlink:href="#Arial-BoldMT-62" x="116.699219" />
      <use xlink:href="#Arial-BoldMT-65" x="177.783203" />
      <use xlink:href="#Arial-BoldMT-6c" x="233.398438" />
     </g>
    </g>
    <g id="patch_3">
     <path d="M 8 34.289062  L 28 34.289062  L 28 27.289062  L 8 27.289062  z " style="fill: #fefebb; stroke: #444443; stroke-width: 0.4; stroke-linejoin: miter" />
    </g>
    <g id="text_2">
     
     <g style="fill: #444443" transform="translate(31.5 34.289062) scale(0.1 -0.1)">
      <defs>
       <path id="ArialMT-43" d="M 3763 1606  L 4369 1453  Q 4178 706 3683 314  Q 3188 -78 2472 -78  Q 1731 -78 1267 223  Q 803 525 561 1097  Q 319 1669 319 2325  Q 319 3041 592 3573  Q 866 4106 1370 4382  Q 1875 4659 2481 4659  Q 3169 4659 3637 4309  Q 4106 3959 4291 3325  L 3694 3184  Q 3534 3684 3231 3912  Q 2928 4141 2469 4141  Q 1941 4141 1586 3887  Q 1231 3634 1087 3207  Q 944 2781 944 2328  Q 944 1744 1114 1308  Q 1284 872 1643 656  Q 2003 441 2422 441  Q 2931 441 3284 734  Q 3638 1028 3763 1606  z " transform="scale(0.015625)" />
       <path id="ArialMT-6c" d="M 409 0  L 409 4581  L 972 4581  L 972 0  L 409 0  z " transform="scale(0.015625)" />
       <path id="ArialMT-61" d="M 2588 409  Q 2275 144 1986 34  Q 1697 -75 1366 -75  Q 819 -75 525 192  Q 231 459 231 875  Q 231 1119 342 1320  Q 453 1522 633 1644  Q 813 1766 1038 1828  Q 1203 1872 1538 1913  Q 2219 1994 2541 2106  Q 2544 2222 2544 2253  Q 2544 2597 2384 2738  Q 2169 2928 1744 2928  Q 1347 2928 1158 2789  Q 969 2650 878 2297  L 328 2372  Q 403 2725 575 2942  Q 747 3159 1072 3276  Q 1397 3394 1825 3394  Q 2250 3394 2515 3294  Q 2781 3194 2906 3042  Q 3031 2891 3081 2659  Q 3109 2516 3109 2141  L 3109 1391  Q 3109 606 3145 398  Q 3181 191 3288 0  L 2700 0  Q 2613 175 2588 409  z M 2541 1666  Q 2234 1541 1622 1453  Q 1275 1403 1131 1340  Q 988 1278 909 1158  Q 831 1038 831 891  Q 831 666 1001 516  Q 1172 366 1500 366  Q 1825 366 2078 508  Q 2331 650 2450 897  Q 2541 1088 2541 1459  L 2541 1666  z " transform="scale(0.015625)" />
       <path id="ArialMT-73" d="M 197 991  L 753 1078  Q 800 744 1014 566  Q 1228 388 1613 388  Q 2000 388 2187 545  Q 2375 703 2375 916  Q 2375 1106 2209 1216  Q 2094 1291 1634 1406  Q 1016 1563 777 1677  Q 538 1791 414 1992  Q 291 2194 291 2438  Q 291 2659 392 2848  Q 494 3038 669 3163  Q 800 3259 1026 3326  Q 1253 3394 1513 3394  Q 1903 3394 2198 3281  Q 2494 3169 2634 2976  Q 2775 2784 2828 2463  L 2278 2388  Q 2241 2644 2061 2787  Q 1881 2931 1553 2931  Q 1166 2931 1000 2803  Q 834 2675 834 2503  Q 834 2394 903 2306  Q 972 2216 1119 2156  Q 1203 2125 1616 2013  Q 2213 1853 2448 1751  Q 2684 1650 2818 1456  Q 2953 1263 2953 975  Q 2953 694 2789 445  Q 2625 197 2315 61  Q 2006 -75 1616 -75  Q 969 -75 630 194  Q 291 463 197 991  z " transform="scale(0.015625)" />
       <path id="ArialMT-20" transform="scale(0.015625)" />
       <path id="ArialMT-30" d="M 266 2259  Q 266 3072 433 3567  Q 600 4063 929 4331  Q 1259 4600 1759 4600  Q 2128 4600 2406 4451  Q 2684 4303 2865 4023  Q 3047 3744 3150 3342  Q 3253 2941 3253 2259  Q 3253 1453 3087 958  Q 2922 463 2592 192  Q 2263 -78 1759 -78  Q 1097 -78 719 397  Q 266 969 266 2259  z M 844 2259  Q 844 1131 1108 757  Q 1372 384 1759 384  Q 2147 384 2411 759  Q 2675 1134 2675 2259  Q 2675 3391 2411 3762  Q 2147 4134 1753 4134  Q 1366 4134 1134 3806  Q 844 3388 844 2259  z " transform="scale(0.015625)" />
      </defs>
      <use xlink:href="#ArialMT-43" />
      <use xlink:href="#ArialMT-6c" x="72.216797" />
      <use xlink:href="#ArialMT-61" x="94.433594" />
      <use xlink:href="#ArialMT-73" x="150.048828" />
      <use xlink:href="#ArialMT-73" x="200.048828" />
      <use xlink:href="#ArialMT-20" x="250.048828" />
      <use xlink:href="#ArialMT-30" x="277.832031" />
     </g>
    </g>
    <g id="patch_4">
     <path d="M 8 48.434375  L 28 48.434375  L 28 41.434375  L 8 41.434375  z " style="fill: #a1dab4; stroke: #444443; stroke-width: 0.4; stroke-linejoin: miter" />
    </g>
    <g id="text_3">
     
     <g style="fill: #444443" transform="translate(31.5 48.434375) scale(0.1 -0.1)">
      <defs>
       <path id="ArialMT-31" d="M 2384 0  L 1822 0  L 1822 3584  Q 1619 3391 1289 3197  Q 959 3003 697 2906  L 697 3450  Q 1169 3672 1522 3987  Q 1875 4303 2022 4600  L 2384 4600  L 2384 0  z " transform="scale(0.015625)" />
      </defs>
      <use xlink:href="#ArialMT-43" />
      <use xlink:href="#ArialMT-6c" x="72.216797" />
      <use xlink:href="#ArialMT-61" x="94.433594" />
      <use xlink:href="#ArialMT-73" x="150.048828" />
      <use xlink:href="#ArialMT-73" x="200.048828" />
      <use xlink:href="#ArialMT-20" x="250.048828" />
      <use xlink:href="#ArialMT-31" x="277.832031" />
     </g>
    </g>
   </g>
  </g>
 </g>
</svg></g>
</g>
</svg>